<svg xmlns="http://www.w3.org/2000/svg" viewBox="0 0 167.6 244.1"><path fill="#072730" d="M161.2 85.7c0-1.4 1.4-3.9 2.6-6 2.2-3.9 4.6-8.2 3.5-13-1.1-5-5.3-7.9-9-10.4-1.9-1.3-4.2-2.9-4.8-4.1-.6-1.2-.4-4-.3-6.4.3-4.5.6-9.5-2.5-13.4-3.1-3.9-8.1-4.7-12.6-5.4-2.3-.4-5.1-.8-6.2-1.7-1-.8-2.1-3.5-3-5.6-1.7-4.2-3.6-8.9-8.1-11.1-4.5-2.2-9.3-.7-13.6.5-2.4.7-5 1.5-6.4 1.2-1.2-.3-3.3-2.2-5-3.7-3.1-3.1-6.9-6.6-12-6.6s-8.9 3.5-12.3 6.5c-1.7 1.5-3.8 3.4-5 3.7-1.4.3-4-.5-6.4-1.2-4.3-1.3-9.1-2.7-13.6-.5s-6.4 6.9-8.1 11.1c-.9 2.1-1.9 4.8-2.9 5.6-1 .8-3.9 1.3-6.2 1.7-4.4.7-9.4 1.5-12.6 5.4-3.1 3.9-2.8 9-2.5 13.4.2 2.4.3 5.2-.3 6.4-.6 1.2-2.9 2.8-4.8 4.1-3.7 2.6-7.9 5.5-9 10.4-1.1 4.8 1.4 9.2 3.5 13 1.2 2.2 2.6 4.6 2.6 6s-1.4 3.9-2.6 6c-2.2 3.9-4.6 8.2-3.5 13 1.1 5 5.3 7.9 9 10.4 1.9 1.3 4.2 2.9 4.8 4.1.6 1.2.4 4 .3 6.4-.3 4.5-.6 9.5 2.5 13.4 3.1 3.9 8.1 4.7 12.6 5.4 2.3.4 5.1.8 6.2 1.7 1 .8 2.1 3.5 2.9 5.6.9 2.3 2 4.6 3.3 6.7-.2.4-.3.7-.4 1.1L24.7 229c-.6 2.7 1 5.4 3.7 6 1.1.3 2.2.2 3.2-.3l18.6-8.3L61.8 242c.9 1.3 2.4 2 4 2 .3 0 .7 0 1-.1 1.9-.4 3.4-1.9 3.8-3.8l12.7-54.7 13.6 54.8c.7 2.7 3.4 4.3 6.1 3.6 1.1-.3 2-.9 2.7-1.7l12.8-15.7 17.4 8.2c2.5 1.2 5.5.1 6.7-2.4.5-1 .6-2.2.3-3.3l-16.7-69.4c-.1-.4-.2-.7-.4-1.1 1.3-2.1 2.5-4.4 3.3-6.8.9-2.1 1.9-4.8 2.9-5.6 1-.8 3.9-1.3 6.2-1.7 4.4-.7 9.4-1.5 12.6-5.4 3.1-3.9 2.8-9 2.5-13.4-.2-2.4-.3-5.2.3-6.4.6-1.2 2.9-2.8 4.8-4.1 3.7-2.6 7.9-5.5 9-10.4 1.1-4.8-1.4-9.2-3.5-13-1.3-2.1-2.7-4.5-2.7-5.9zM63.4 227.4l-7.5-10.1c-1.4-1.9-3.9-2.5-6-1.6l-13 5.8 13.8-57.6c3.3.3 6.6-.7 9.6-1.6 2.4-.7 5-1.5 6.4-1.2 1.2.3 3.3 2.2 5 3.7 1.7 1.6 3.5 3 5.4 4.3 0 .1-.1.3-.1.4l-13.6 57.9zm67.3-6.2l-11.5-5.4c-2.1-1-4.6-.4-6 1.4l-9 11-14.5-58.4c2.3-1.4 4.4-3 6.3-4.9 1.7-1.5 3.8-3.4 5-3.7 1.3-.3 4 .5 6.4 1.2 3 .9 6.3 1.9 9.5 1.6l13.8 57.2zm24.4-124.6c1.1 1.9 2.7 4.9 2.5 5.9-.3 1.2-3 3.1-5 4.5-3 2.1-6.4 4.4-8.1 7.9-1.7 3.6-1.5 7.7-1.2 11.4.1 2.2.4 5.6-.4 6.5-.7.9-4.1 1.4-6.3 1.8-3.6.6-7.7 1.2-10.8 3.7-3.1 2.5-4.6 6.3-6 9.7-.8 2.1-2.1 5.3-3.2 5.8-1 .5-4.2-.5-6.4-1.1-3.5-1-7.5-2.2-11.4-1.4-3.8.9-6.8 3.6-9.5 6.1-1.8 1.6-4.3 3.9-5.5 3.9s-3.7-2.2-5.5-3.9c-2.7-2.4-5.7-5.2-9.5-6.1-.9-.2-1.9-.3-2.9-.3-2.9.1-5.8.7-8.6 1.7-2.1.6-5.4 1.6-6.4 1.1-1.1-.5-2.3-3.7-3.2-5.8-1.4-3.4-2.9-7.2-6-9.7-3.1-2.5-7.2-3.1-10.8-3.7-2.2-.4-5.6-.9-6.3-1.8-.7-.9-.5-4.3-.3-6.5.2-3.7.5-7.8-1.2-11.4-1.7-3.5-5.1-5.9-8.1-7.9-2-1.4-4.7-3.3-5-4.5-.2-1 1.4-4 2.5-5.9 1.8-3.2 3.9-6.9 3.9-10.9s-2.1-7.7-3.9-10.9c-1.1-1.9-2.7-4.9-2.5-5.9.3-1.2 3-3.1 5-4.5 3-2.1 6.4-4.4 8.1-7.9 1.7-3.6 1.5-7.7 1.2-11.4-.1-2.2-.4-5.6.3-6.5.7-.9 4.1-1.4 6.3-1.8 3.6-.6 7.7-1.2 10.8-3.7 3.1-2.5 4.6-6.3 6-9.7.8-2.1 2.1-5.3 3.2-5.8 1-.5 4.2.5 6.4 1.1 3.5 1 7.5 2.2 11.4 1.4 3.8-.9 6.8-3.6 9.5-6.1 1.8-1.6 4.3-3.9 5.5-3.9s3.7 2.2 5.5 3.9c2.7 2.4 5.7 5.2 9.5 6.1 3.9.9 7.9-.3 11.4-1.4 2.1-.6 5.4-1.6 6.4-1.1 1.1.5 2.3 3.7 3.2 5.8 1.4 3.4 2.9 7.2 6 9.7 3.1 2.5 7.2 3.1 10.8 3.7 2.2.4 5.6.9 6.3 1.8.7.9.5 4.3.3 6.5-.2 3.7-.5 7.8 1.2 11.4 1.7 3.5 5.1 5.9 8.1 7.9 2 1.4 4.7 3.3 5 4.5.2 1-1.4 4-2.5 5.9-1.8 3.2-3.9 6.9-3.9 10.9s2.3 7.7 4.1 10.9z"/><path fill="#072730" d="M83.8 28c-31.9 0-57.7 25.8-57.7 57.7 0 25 16.1 47.1 39.8 54.9 2.6.9 5.4-.6 6.3-3.2.9-2.6-.6-5.4-3.2-6.3C44 122.9 30.3 96 38.4 71c8.2-25 35.1-38.7 60.1-30.6s38.7 35.1 30.6 60.1c-4.9 15-16.8 26.5-31.9 31-2.7.8-4.2 3.6-3.4 6.2.8 2.7 3.6 4.2 6.2 3.4 30.6-9 48.1-41 39.2-71.6C132 44.9 109.4 28 83.8 28z"/></svg>