<svg xmlns="http://www.w3.org/2000/svg" viewBox="0 0 140.9 116.27"><g id="Layer_2" data-name="Layer 2"><g id="Ñëîé_1" data-name="Ñëîé 1"><path d="M71.88,42.8a2,2,0,0,0-1.41-.59,2,2,0,0,0-1.42.59l-5.74,5.74a2,2,0,1,0,2.83,2.83L68.47,49V76.76l-2.33-2.32a2,2,0,0,0-2.83,2.82L69.05,83a2,2,0,0,0,2.83,0h0l5.74-5.74a2,2,0,0,0-2.83-2.82l-2.32,2.32V49l2.32,2.33a2,2,0,1,0,2.83-2.83Z" fill="#30545f"/><path d="M122.24,41.68V40.14a26.65,26.65,0,0,0-38.7-23.79A36.3,36.3,0,0,0,17.4,42a24.64,24.64,0,0,0,7.24,48.19H30a2,2,0,0,0,0-4H24.64A20.64,20.64,0,0,1,18.24,46a37.57,37.57,0,0,0,2.16,5.87A2,2,0,0,0,24,50.12,32.34,32.34,0,1,1,84.37,27.41a2,2,0,0,0,3.84-1.1,34.75,34.75,0,0,0-2.57-6.47,22.67,22.67,0,0,1,30.1,30.85,2,2,0,1,0,3.54,1.86,26.76,26.76,0,0,0,2.45-6.86,20.64,20.64,0,0,1-5.51,40.53H100.45a2,2,0,0,0-2,2v14.06a2,2,0,0,0,2,2h3.41v4.27a4.1,4.1,0,0,1-4.34,3.78H41.41a4.08,4.08,0,0,1-4.33-3.78v-4.27H58.66l2.6,2.28a2,2,0,0,0,1.32.49H78.36a2,2,0,0,0,1.31-.49l2.6-2.28h10.6a2,2,0,0,0,0-4H81.52a1.94,1.94,0,0,0-1.32.5l-2.6,2.27H63.33l-2.6-2.27a2,2,0,0,0-1.32-.5H42.49V68.15a1.69,1.69,0,0,1,1.69-1.69h17.9a2,2,0,1,0,0-4H44.18a5.69,5.69,0,0,0-5.69,5.69h0v32.07H36.66a3.58,3.58,0,0,0-3.58,3.58h0v4.69a8.08,8.08,0,0,0,8.33,7.78H99.52a8.09,8.09,0,0,0,8.34-7.78V103.8a3.59,3.59,0,0,0-3.59-3.58h-1.82v-10h13.79a24.63,24.63,0,0,0,6.06-48.51Z" fill="#30545f"/><path d="M100.45,78.66a2,2,0,0,0,2-2V68.15a5.7,5.7,0,0,0-5.7-5.69h-18a2,2,0,1,0,0,4h18a1.7,1.7,0,0,1,1.7,1.69v8.51A2,2,0,0,0,100.45,78.66Z" fill="#30545f"/></g></g></svg>