<svg xmlns="http://www.w3.org/2000/svg" viewBox="0 0 256.5 245.7"><path fill="#30545f" d="M91 59.8c-.1 2.8.1 5.6.5 8.3.5 3.3 1.5 6.5 3 9.4 1.8 3.4 4.2 6.6 6.9 9.3 3.1 3.2 6.4 6 9.6 8.8l.4.4c5.5 4.7 10.4 9 15.1 13.5l1.1 1c1.9 1.8 4.9 1.8 6.8 0l.3-.2c.7-.6 1.4-1.3 2.1-1.9 1.4-1.3 2.9-2.7 4.4-4.1 2.6-2.3 5.1-4.5 7.7-6.8 1.8-1.5 3.5-3.1 5.3-4.6 3.1-2.7 6.1-5.6 8.8-8.6 2.8-3.1 4.9-6.7 6.3-10.7.9-2.6 1.5-5.4 1.7-8.1.3-2.7.3-5.5-.1-8.2-1.5-10.7-10.3-18.8-21-19.5-3.8-.3-7.6.3-11.1 1.8-2.9 1.3-5.6 3.1-7.8 5.3l-.1-.1c-7.1-6.8-15.6-8.8-24.7-5.8-8.9 3-15 11.3-15.2 20.8zm23.3-12.1c3.5 0 6.7 1.4 9.8 4.4 1 1 1.8 2.1 2.6 3.2l.3.4c1.5 2.3 4.6 3 6.9 1.5.5-.4 1-.8 1.4-1.4l.5-.7c.3-.4.5-.8.8-1.1 1.6-2.3 3.8-4.1 6.4-5.2 2-.9 4.2-1.2 6.3-1 3.2.2 6.2 1.6 8.4 3.9 1.9 1.9 3.1 4.5 3.5 7.2a29.079 29.079 0 0 1-1.2 11.7c-1 2.7-2.5 5.3-4.4 7.4-2.4 2.7-5.1 5.3-7.8 7.6-1.7 1.5-3.5 3.1-5.2 4.6-2.6 2.3-5.2 4.5-7.8 6.8-1.2 1-2.3 2.1-3.5 3.2-4.1-3.8-8.4-7.5-13.1-11.6l-.4-.4c-3.2-2.8-6.2-5.4-9-8.2-2.1-2-3.8-4.4-5.2-6.9-1-2-1.7-4.2-2-6.4-.3-2.1-.5-4.2-.4-6.4.1-5.3 3.5-10 8.5-11.7 1.3-.6 2.9-.9 4.6-.9zM254.8 140c-9.6-8.4-23.5-9.5-34.3-2.6-5.3-3.5-11.7-5-18-4.4-7.9.7-15.1 4.7-20 10.9L168 162.2c-1.7 2.2-1.3 5.3.9 7 2.1 1.7 5.3 1.3 7-.8l14.5-18.2c3.2-4.1 7.9-6.7 13.1-7.2 3.2-.3 6.5.3 9.4 1.6l-25.4 31.9h-66.9c-1.7-.2-2.9-1.8-2.7-3.5.2-1.4 1.3-2.5 2.7-2.7h18c16.9 0 30.7-14.3 30.7-31.9 0-2.8-2.2-5-5-5h-57.1c-23.8 0-46.1 12.3-59.5 32.9L.8 237.9c-1.5 2.3-.9 5.4 1.5 6.9s5.4.9 6.9-1.5L56 171.7c11.6-17.7 30.7-28.3 51.2-28.3h51.5c-2.1 9.7-10.4 16.9-20.1 16.9h-18c-7.2.2-12.9 6.2-12.7 13.5.2 6.9 5.8 12.5 12.7 12.7h69.3c1.5 0 3-.7 3.9-1.9l27.4-34.4c3.2-4.1 7.9-6.7 13.1-7.2 3.4-.3 6.9.3 10 1.9l-41.8 52.6c-2.9 3.7-7.2 5.8-11.9 5.9H98.9c-8.8 0-16.9 4.5-21.7 11.9l-14.8 22.6c-1.5 2.3-.9 5.4 1.4 6.9s5.4.9 6.9-1.4c0 0 0-.1.1-.1l14.8-22.6c2.9-4.6 7.9-7.3 13.3-7.4h91.6c7.7 0 15-3.6 19.7-9.6l45.2-56.8c1.7-2.1 1.4-5.1-.6-6.9zM156 15.1c5.4 2.4 10.3 5.6 14.8 9.5 2 1.8 5 1.6 6.8-.4s1.6-5-.4-6.8l-.1-.1c-5.1-4.4-10.9-8.1-17.1-11-2.4-1.1-5.3 0-6.4 2.4s0 5.3 2.4 6.4zm33.7 38.7c.7 2.6 3.4 4 6 3.3 2.6-.7 4-3.4 3.3-6V51c-1.9-6.5-4.8-12.7-8.5-18.4-1.4-2.2-4.4-2.9-6.6-1.5-2.2 1.4-2.9 4.4-1.5 6.6 0 0 0 .1.1.1 3.1 5 5.5 10.4 7.2 16zm-.6 49.4c-2.2-1.4-5.2-.8-6.6 1.4-3.2 4.9-7.1 9.4-11.5 13.3-2 1.7-2.3 4.7-.6 6.8 1.7 2 4.7 2.3 6.8.6l.1-.1c5.1-4.5 9.6-9.6 13.3-15.3 1.4-2.2.7-5.2-1.5-6.7zm-68.2-92.9h.7c5.8-.8 11.7-.8 17.6 0 2.6.4 5.1-1.5 5.4-4.1.4-2.6-1.5-5.1-4.1-5.4-6.7-.9-13.6-.9-20.3 0-2.6.4-4.5 2.8-4.1 5.5.4 2.2 2.4 4 4.8 4zm71.3 60.9v.1c0 5.9-.8 11.7-2.5 17.4-.8 2.5.7 5.2 3.2 6 2.5.8 5.2-.7 6-3.2v-.1c1.9-6.5 2.9-13.3 2.9-20.1v-.1c0-2.7-2.1-4.8-4.7-4.9-2.7 0-4.8 2.1-4.9 4.7v.2zM65.3 57.3c2.5.7 5.2-.7 6-3.3 1.6-5.6 4.1-11 7.3-16 1.5-2.2.8-5.2-1.4-6.7s-5.2-.8-6.7 1.4v.1c-3.7 5.7-6.5 11.9-8.4 18.5-.8 2.5.6 5.2 3.2 6zm1.4 37.6c2.7 0 4.8-2.2 4.8-4.8 0-.5-.1-.9-.2-1.4-1.7-5.6-2.5-11.5-2.5-17.4 0-2.7-2.2-4.8-4.8-4.8-2.7 0-4.8 2.2-4.8 4.8 0 6.8 1 13.6 2.9 20.1.6 2.1 2.4 3.5 4.6 3.5zm20.2-69c1.2 0 2.3-.4 3.2-1.2 4.4-3.9 9.4-7.1 14.8-9.5 2.4-1.1 3.5-4 2.4-6.4-1.1-2.4-4-3.5-6.4-2.4-6.2 2.8-11.9 6.5-17.1 11-2 1.7-2.2 4.8-.5 6.8a4.6 4.6 0 0 0 3.6 1.7zm-8.3 78.8c-1.4-2.2-4.4-2.9-6.6-1.4-2.2 1.4-2.9 4.4-1.4 6.6 3.7 5.7 8.2 10.9 13.3 15.3 2 1.7 5 1.5 6.8-.5s1.5-5-.5-6.8c-4.5-3.8-8.4-8.2-11.6-13.2z"/></svg>