<svg xmlns="http://www.w3.org/2000/svg" viewBox="0 0 52.32 38.96"><g id="Layer_2" data-name="Layer 2"><g id="Layer_1-2" data-name="Layer 1"><path d="M42.54,33.31H40.79a1,1,0,1,1,0-2h1.75A7.78,7.78,0,0,0,44.33,16a1,1,0,0,1-.73-.71,5.88,5.88,0,0,0-7.29-4l-.24.07a1,1,0,0,1-.82-.08,1,1,0,0,1-.48-.68,10.54,10.54,0,0,0-20.89,2,1,1,0,0,1-.28.88,1,1,0,0,1-.89.27,9.66,9.66,0,0,0-1.52-.15,8.86,8.86,0,0,0-.6,17.71h1.28a1,1,0,0,1,0,2h-.68a10.86,10.86,0,0,1-.66-21.71h1.39A12.54,12.54,0,0,1,36.48,9.09,9.41,9.41,0,0,1,38,8.94a7.86,7.86,0,0,1,7.36,5.16,9.78,9.78,0,0,1-2.8,19.15Z" fill="#30545f"/><path d="M15.6,18.34a.81.81,0,0,1-.31,0c-3-1-3.39-5.27-3.4-5.45a1,1,0,0,1,2-.17c.08.87.59,3.24,2,3.72a1,1,0,0,1,.63,1.26A1,1,0,0,1,15.6,18.34Z" fill="#30545f"/><path d="M33.44,14.86a1,1,0,0,1-1-.89c-.34-3.12,2.8-4.46,2.93-4.51a1,1,0,0,1,1.31.54h0a1,1,0,0,1-.54,1.3c-.09,0-1.89.84-1.71,2.45a1,1,0,0,1-.88,1.1Z" fill="#30545f"/><path d="M34.62,39H18a1,1,0,0,1-1-1V29.22a1,1,0,0,1,1-1H26.5l2-2.84a1,1,0,0,1,.82-.44h5.34a1,1,0,0,1,1,1v12a1,1,0,0,1-1,1ZM19,37H33.62V27H29.81l-2,2.84a1,1,0,0,1-.83.44H19Z" fill="#30545f"/></g></g></svg>