<svg xmlns="http://www.w3.org/2000/svg" viewBox="0 0 604.91 504"><g id="Layer_2" data-name="Layer 2"><g id="Layer_1-2" data-name="Layer 1"><path d="M541.83,230.54c0-1.25.07-2.49.07-3.71A113.54,113.54,0,0,0,433,113.48,163.58,163.58,0,0,0,277.3,0C191,0,120.11,67,113.93,151.78A126,126,0,0,0,126.1,403.2h12.6V378H126.1A100.8,100.8,0,0,1,114,177.12a163.18,163.18,0,0,0,8.23,39.69l23.85-8.15a138.56,138.56,0,0,1-7.42-44.86c0-76.43,62.18-138.6,138.6-138.6A138.37,138.37,0,0,1,407,115.48a112.9,112.9,0,0,0-56.26,28.78l17.28,18.36a87.87,87.87,0,0,1,52-23.57l6.19-.29c.75,0,1.5-.11,2.26-.11a88.3,88.3,0,0,1,88.2,88.2,86.2,86.2,0,0,1-.91,11.9L514.14,251l12.23,1.89a62.95,62.95,0,0,1-9.66,125.16h-50.4v25.2h50.4a88.17,88.17,0,0,0,25.13-172.69Z" fill="#30545f"/><path d="M226.9,403.68V360.4l18.24,23.87,20-15.31L232,325.48a22.34,22.34,0,0,0-31.35-4,22,22,0,0,0-4,4l-33.2,43.45,20,15.31,18.24-23.87v43.28A100.46,100.46,0,0,0,302,504h50.86V478.8H302A75.24,75.24,0,0,1,226.9,403.68Z" fill="#30545f"/><path d="M403.3,420.86V377.57A100.45,100.45,0,0,0,303,277.23H252.1v25.25H303a75.23,75.23,0,0,1,75.14,75.14v43.29L359.86,397l-20,15.31,33.21,43.44a21.74,21.74,0,0,0,35.33,0l33.2-43.44L421.6,397Z" fill="#30545f"/></g></g></svg>