<svg xmlns="http://www.w3.org/2000/svg" viewBox="0 0 236.5 165.6"><path fill="#30545f" d="M85.7 82.6c-7.6 0-13.7 6.1-13.7 13.7S78.1 110 85.7 110s13.7-6.1 13.7-13.7c.1-7.5-6.1-13.7-13.7-13.7zm0 19.5c-3.2 0-5.7-2.6-5.7-5.7s2.6-5.7 5.7-5.7 5.7 2.6 5.7 5.7c.1 3.1-2.5 5.7-5.7 5.7zm38.1-19.5c-7.6 0-13.7 6.1-13.7 13.7s6.1 13.7 13.7 13.7 13.7-6.1 13.7-13.7c.1-7.5-6.1-13.7-13.7-13.7zm0 19.5c-3.2 0-5.7-2.6-5.7-5.7s2.6-5.7 5.7-5.7 5.7 2.6 5.7 5.7c.1 3.1-2.5 5.7-5.7 5.7zM162 82.6c-7.6 0-13.7 6.1-13.7 13.7S154.4 110 162 110s13.7-6.1 13.7-13.7c0-7.5-6.2-13.7-13.7-13.7zm0 19.5c-3.2 0-5.7-2.6-5.7-5.7s2.6-5.7 5.7-5.7 5.7 2.6 5.7 5.7-2.6 5.7-5.7 5.7z"/><path fill="#30545f" d="M227.2 86.6c3.8-19.7-.2-39.1-11.4-53.7-17-22.3-47.2-30-76.1-19.6-24.9-20.4-61.6-16.8-82 8.1-6.9 8.3-11.3 18.5-12.7 29.3-31.4 7.3-50.8 38.7-43.4 70 5.9 25 27.4 43.2 53 44.8h.9c2.8 0 5-2.2 5-5s-2.2-5-5-5h-.3c-26.6-1.7-46.8-24.7-45-51.3 1.5-22.4 18.2-40.8 40.3-44.5 2.3-.4 4-2.3 4.2-4.6C56.4 28.5 79.4 8.3 106 10c11 .7 21.4 5.1 29.5 12.6 1.4 1.3 3.5 1.7 5.3.9 25.5-10.3 52.5-4.1 67.3 15.3 9.9 13 13.1 30 9.1 47.8-.3 1.5 0 3.1 1 4.3 13.1 15.8 10.9 39.2-4.9 52.3-6.7 5.5-15.1 8.6-23.7 8.5-2.8 0-5 2.2-5 5s2.2 5 5 5c26 0 47.1-21 47.2-47.1-.3-10-3.6-19.9-9.6-28z"/></svg>