<svg xmlns="http://www.w3.org/2000/svg" viewBox="0 0 205 242.4"><path fill="#30545f" d="M101.1 39.6c10.9 0 19.8-8.9 19.8-19.8S112 0 101.1 0 81.3 8.9 81.3 19.8c.1 10.9 8.9 19.8 19.8 19.8zm0-29.6c5.4 0 9.8 4.4 9.8 9.8s-4.4 9.8-9.8 9.8-9.8-4.4-9.8-9.8 4.4-9.8 9.8-9.8zM84.8 83.3h33.7c2.8 0 5-2.2 5-5V59c0-10.6-8.6-19.2-19.3-19.3H99c-10.6 0-19.2 8.6-19.3 19.3v19.3c.1 2.7 2.4 5 5.1 5zm5-24.3c0-5.1 4.1-9.3 9.3-9.3h5.2c5.1 0 9.3 4.1 9.3 9.3v14.3H89.8V59zm-55.1 90.6c-10.9 0-19.8 8.9-19.8 19.8s8.9 19.8 19.8 19.8 19.8-8.9 19.8-19.8-8.9-19.8-19.8-19.8zm0 29.6c-5.4 0-9.8-4.4-9.8-9.8s4.4-9.8 9.8-9.8 9.8 4.4 9.8 9.8-4.4 9.8-9.8 9.8zm3.1 10.1h-5.2c-10.6 0-19.2 8.6-19.3 19.3v19.3c0 2.8 2.2 5 5 5H52c2.8 0 5-2.2 5-5v-19.3c.1-10.6-8.5-19.2-19.2-19.3zm9.3 33.6H23.4v-14.3c0-5.1 4.1-9.3 9.3-9.3h5.2c5.1 0 9.3 4.1 9.3 9.3v14.3zm123.5-33.7c10.9 0 19.8-8.9 19.8-19.8s-8.9-19.8-19.8-19.8-19.8 8.9-19.8 19.8 8.9 19.8 19.8 19.8zm0-29.6c5.4 0 9.8 4.4 9.8 9.8s-4.4 9.8-9.8 9.8-9.8-4.4-9.8-9.8 4.4-9.8 9.8-9.8zm3.2 29.7h-5.2c-10.6 0-19.2 8.6-19.3 19.3v19.3c0 2.8 2.2 5 5 5H188c2.8 0 5-2.2 5-5v-19.3c0-10.6-8.6-19.3-19.2-19.3zm9.2 33.6h-23.7v-14.3c0-5.1 4.1-9.3 9.3-9.3h5.2c5.1 0 9.3 4.1 9.3 9.3l-.1 14.3zm-173-83c-.1-37.4 22.5-71.2 57-85.5 2.6-1 3.8-3.9 2.8-6.5s-3.9-3.8-6.5-2.8h-.1C24.9 61.1-.1 98.5 0 139.9c0 4.7.3 9.4 1 14 .4 2.7 2.9 4.7 5.6 4.3 2.7-.4 4.7-2.9 4.3-5.6-.6-4.2-.9-8.4-.9-12.7zm122.9 87.4c-19.7 6.8-41.1 6.8-60.8 0-2.6-.9-5.5.5-6.4 3.1s.5 5.5 3.1 6.4c21.8 7.6 45.6 7.6 67.4 0 2.6-.9 4-3.8 3.1-6.4-.9-2.6-3.8-4-6.4-3.1zm8.9-182.1c-2.6-1-5.5.2-6.5 2.7s.2 5.4 2.7 6.5c34.6 14.3 57.1 48.1 57 85.5 0 4.2-.3 8.5-.9 12.7-.4 2.7 1.5 5.3 4.3 5.6 2.7.4 5.3-1.5 5.6-4.3.6-4.7 1-9.3 1-14 .1-41.4-24.8-78.8-63.2-94.7zm-87.4 89.6c-2.8 0-5 2.3-5 5 0 2.8 2.3 5 5 5h.1l17.4-.2c1.6 0 3.1-.8 4.1-2.1l4.6-6.6 7.8 42.2c.4 2.4 2.5 4.1 4.9 4.1 2.4 0 4.5-1.8 4.9-4.1l9.2-53.1 7.6 43.8c.5 2.7 3.1 4.5 5.8 4.1 1.8-.3 3.3-1.6 3.9-3.3l8.9-25.4h17.1c2.8 0 5-2.2 5-5s-2.2-5-5-5H130c-2.1 0-4 1.3-4.7 3.3l-3.7 10.7-9.3-53.2c-.4-2.4-2.5-4.1-4.9-4.1-2.4 0-4.5 1.7-4.9 4.1L93 148.8l-4.9-26.5c-.5-2.7-3.1-4.5-5.8-4-1.3.2-2.4 1-3.2 2.1l-9.9 14.3-14.8.1z"/></svg>