<svg xmlns="http://www.w3.org/2000/svg" viewBox="0 0 226 221.9"><path fill="#30545f" d="M73.5 159.7c-2.1 1.8-2.4 4.9-.6 7 .9 1.1 2.3 1.8 3.8 1.8h72.6c2.8 0 5-2.2 5-5s-2.2-5-5-5H88.4c8.9-11.2 15.4-26.6 13.5-40.6-.1-1.1-.3-2.1-.6-3.2h24.4c2.8 0 5-2.2 5-5s-2.2-5-5-5H98c-1.1-2.4-2.3-4.8-3.4-7.2-.6-1.3-1.3-2.5-1.9-3.8-5.1-10.7-5.8-17.9-2.3-23.9 4-6.9 12.5-11.5 21.3-11.5 25.2 0 27.1 19.9 27.3 22.2.2 2.8 2.5 4.9 5.3 4.7 2.7-.2 4.8-2.5 4.7-5.2 0-.3-2-31.6-37.2-31.6-12.4 0-24.1 6.5-29.9 16.5-6.8 11.8-2.5 24 1.9 33.3.6 1.3 1.3 2.6 1.9 4 .5.9.9 1.8 1.3 2.7H74.1c-2.8 0-5 2.2-5 5s2.2 5 5 5h17c.4 1.5.8 3 1 4.5 1.3 10.6-4.7 28.4-18.6 40.3z"/><path fill="#30545f" d="M115.2 0H113C50.6 0 0 50.6 0 113.1c0 50.5 33.6 94.9 82.2 108.7 2.7.8 5.4-.8 6.2-3.4.8-2.7-.8-5.4-3.5-6.2C30.2 196.6-1.6 139.6 14 84.9S86.4-1.5 141.1 14s86.5 72.5 70.9 127.2c-9.7 34.1-36.3 60.9-70.4 70.8-2.6.8-4.2 3.6-3.4 6.2.8 2.6 3.5 4.2 6.2 3.4 22.9-6.7 43.1-20.4 57.8-39.2 38.3-49.3 29.4-120.3-19.9-158.6C163.1 8.8 139.5.5 115.2 0z"/></svg>