<svg xmlns="http://www.w3.org/2000/svg" viewBox="0 0 252.3 147.5"><path fill="#30545f" d="M252.2 94.6c-2-25.1-22.7-44.5-47.8-45-2.8-.1-5 2.1-5.1 4.9-.1 2.8 2.1 5 4.9 5.1 21.5.4 38.6 18.2 38.2 39.7-.4 21.5-18.2 38.6-39.7 38.2s-38.6-18.2-38.2-39.7c.2-9 3.5-17.6 9.3-24.5 1.8-2.1 1.5-5.3-.6-7s-5.3-1.5-7 .6c-17.5 20.6-15 51.5 5.5 69s51.5 15 69-5.5c8.4-10 12.5-22.8 11.5-35.8z"/><path fill="#30545f" d="M175.7 52.5l20.8 40.7c-3 4.6-1.6 10.7 3 13.7s10.7 1.6 13.7-3 1.6-10.7-3-13.7c-1.4-.9-3.1-1.5-4.8-1.6l-29.6-57.9V5c0-2.8-2.2-5-5-5h-39.7c-2.8 0-5 2.2-5 5s2.2 5 5 5h34.7v16.9H81.9l-4.4-7H83c2.8 0 5-2.2 5-5s-2.2-5-5-5H57.4c-2.8 0-5 2.2-5 5s2.2 5 5 5h8.3c.1.2.2.3.3.5l7.3 11.5-25.4 56.8c-5.4.6-9.4 5.5-8.8 10.9.6 5.4 5.5 9.4 10.9 8.8 3.1-.3 5.9-2.1 7.5-4.9h30c-2.8 21.3-22.3 36.4-43.6 33.6S7.5 114.9 10.3 93.5c2.4-18.8 18-33.1 36.9-33.9 2.8-.1 4.9-2.5 4.8-5.2s-2.5-4.9-5.2-4.8C19.8 50.8-1.1 73.7 0 100.7c1.2 26.1 22.7 46.7 48.8 46.8H51c24.2-1.1 44-19.8 46.5-43.9h6.5c2.7 10.2 13.3 16.3 23.5 13.5 10.2-2.7 16.3-13.3 13.5-23.5-.4-1.6-1.1-3.2-1.9-4.6l36.6-36.5zm-7.9-15.6l3.2 6.2-38.8 38.8c-5-2.9-10.9-3.4-16.3-1.3L88.2 36.9h79.6zm-60.1 49.6c-1.7 2.1-2.9 4.5-3.6 7.1h-6.5C96.5 83.3 92.3 73.7 85.4 66c-1.8-2.1-5-2.2-7.1-.4s-2.2 5-.4 7.1c5.2 5.9 8.6 13.2 9.6 20.9h-30c-.2-.3-.3-.5-.5-.8l22.7-50.7 28 44.4zm14.9 21.2c-5.1 0-9.2-4.1-9.2-9.2s4.1-9.2 9.2-9.2c2.1 0 4.2.7 5.8 2.1.2.3.4.5.6.7.2.2.5.4.7.6 3.2 3.9 2.6 9.7-1.3 12.9-1.6 1.4-3.7 2.1-5.8 2.1z"/></svg>