<svg xmlns="http://www.w3.org/2000/svg" viewBox="0 0 604.91 529.2"><g id="Layer_2" data-name="Layer 2"><g id="Layer_1-2" data-name="Layer 1"><path d="M541.83,230.51c0-1.25.07-2.49.07-3.71A113.54,113.54,0,0,0,433,113.48,163.58,163.58,0,0,0,277.3,0C191,0,120.11,67,113.93,151.78A126,126,0,0,0,126.1,403.2h50.4V378H126.1A100.8,100.8,0,0,1,114,177.12a163.18,163.18,0,0,0,8.23,39.69l23.85-8.15a138.56,138.56,0,0,1-7.42-44.86c0-76.43,62.18-138.6,138.6-138.6A138.38,138.38,0,0,1,407,115.43a112.94,112.94,0,0,0-56.26,28.78l17.28,18.36a87.87,87.87,0,0,1,52-23.57l6.19-.29c.75-.05,1.5-.11,2.26-.11a88.29,88.29,0,0,1,88.2,88.2,86.2,86.2,0,0,1-.91,11.9L514.14,251l12.23,1.88A63,63,0,0,1,516.71,378h-88.2v25.2h88.2a88.17,88.17,0,0,0,25.13-172.69Z" fill="#30545f"/><path d="M201.7,315V529.2H403.3V252H201.7ZM378.1,504H226.9V466.2H378.1Zm0-63H226.9V403.2H378.1Zm0-63H226.9V340.2H378.1ZM226.9,277.2H378.1V315H226.9Z" fill="#30545f"/></g></g></svg>