<svg xmlns="http://www.w3.org/2000/svg" viewBox="0 0 240.6 227.5"><path fill="#30545f" d="M167.9 42.3L190 64.9c1.9 2 5.1 2 7.1.1s2-5.1.1-7.1l-25.9-26.5c-.3-.3-.7-.6-1.1-.8 4.3-14.9 12.5-21.1 13.1-21.5 2.2-1.6 2.8-4.7 1.2-7-1.6-2.2-4.6-2.8-6.9-1.2-1.1.8-26.7 19.1-18.2 68.3 4.8 27.9 7.6 50.3-3.2 64.5-7.6 9.9-22 15.7-44.1 17.7-2.7.3-4.8 2.7-4.5 5.4.2 2.6 2.4 4.5 5 4.5h.5c25-2.3 41.7-9.3 51.1-21.6 13.4-17.4 10.4-42 5.2-72.3-1.8-8.2-2.2-16.7-1.5-25.1z"/><path fill="#30545f" d="M93.4 104.6l25.1 28.6c1.9 2 5 2.2 7.1.3 2-1.8 2.2-4.9.5-6.9l-28-31.8c.2-.3.4-.6.7-.9 2.1-2.7 4.7-5.1 7.6-7.1.2.3.4.7.7.9l28.8 32.2c1.8 2.1 5 2.3 7.1.5 2.1-1.8 2.3-5 .5-7.1l-.1-.1-27.9-31.3C122.8 79 132 77 143 76c2.8-.3 4.8-2.7 4.5-5.4-.3-2.8-2.7-4.8-5.4-4.5-25 2.3-41.7 9.3-51.1 21.6-13.4 17.4-10.4 42-5.2 72.3 7.3 42.4-13.1 57.7-14.1 58.4-2.3 1.6-2.8 4.7-1.2 7 1.6 2.2 4.7 2.8 6.9 1.2 1.1-.8 26.7-19.1 18.2-68.3-3.9-21.6-6.4-40-2.2-53.7zm144.1-50.7c-2.6-1-5.5.2-6.5 2.8-.1.2-8.3 19.8-43.6 18.7h-.1c-2.8 0-5 2.2-5.1 4.9 0 2.8 2.2 5 4.9 5.1h3c39.7 0 49.7-24 50.2-25.1 1-2.5-.3-5.4-2.8-6.4z"/><path fill="#30545f" d="M75.9 186.7c1.8-2.1 1.6-5.2-.4-7.1l-31.7-28c6.2-2.3 14.3-3.8 24.8-3.5 2.8.1 5.1-2.1 5.1-4.9s-2.1-5.1-4.9-5.1c-35.8-1-48.8 17-52.2 23.1h-.3c-9 0-16.3 7.2-16.3 16.2s7.2 16.3 16.2 16.3 16.3-7.2 16.3-16.2c0-5-2.3-9.8-6.3-12.9 2.1-3.2 4.8-5.9 8-8.1l.1.1 34.5 30.5c2.1 1.9 5.2 1.7 7.1-.4zm-59.6-3.1c-3.4 0-6.2-2.8-6.2-6.2s2.8-6.2 6.2-6.2c3.4 0 6.2 2.8 6.2 6.2 0 3.4-2.8 6.2-6.2 6.2z"/></svg>