<svg xmlns="http://www.w3.org/2000/svg" viewBox="0 0 226 223.6"><path fill="#072730" d="M113 0C50.6 0 0 50.6 0 113c0 53.1 37 99.1 89 110.4 2.7.6 5.4-1.1 6-3.8.6-2.7-1.1-5.4-3.8-6h-.1c-34.3-7.4-62.4-31.8-74.6-64.7h30.9c2.4 12.3 6.4 24.1 11.8 35.4 1.3 2.5 4.3 3.4 6.7 2.2 2.4-1.2 3.4-4.2 2.2-6.6-4.8-9.8-8.3-20.2-10.6-30.9H108v47.3c0 2.8 2.2 5 5 5s5-2.2 5-5V149h12.4c2.8 7.6 11.2 11.6 18.8 8.8s11.6-11.2 8.8-18.8-11.2-11.6-18.8-8.8c-4.1 1.5-7.4 4.7-8.8 8.8H118V87h52.3c1.3 8.6 1.9 17.3 1.9 26 0 2.8 2.2 5 5 5s5-2.2 5-5c0-8.7-.6-17.4-1.8-26h32.3C227 142.1 194 198.4 139 212.7c-1.1.3-2.1.5-3.2.8-2.7.6-4.4 3.3-3.8 6s3.3 4.4 6 3.8c60.9-13.8 99.1-74.3 85.3-135.2C211.5 36.6 165.8 0 113 0zm31.2 139.3c2.6 0 4.7 2.1 4.7 4.7s-2.1 4.7-4.7 4.7-4.7-2.1-4.7-4.7 2.1-4.7 4.7-4.7zM108 10.4V77H57.5c2.7-13.3 7.6-26.1 14.3-37.8 10-16.8 22.7-26.8 36.2-28.8zm-31.4 6.3c-5.1 5.2-9.6 11.1-13.3 17.4C56 46.4 50.6 61 47.3 77H16.5c10.4-27.8 32.3-49.8 60.1-60.3zM14.1 139c-.2 0-.5 0-.7.1-4.5-17.2-4.5-35.3.1-52.5.6.3 1.3.4 1.9.4h30.3c-2.4 17.2-2.4 34.8 0 52H14.1zm93.9 0H55.7c-2.6-17.2-2.6-34.8 0-52H108v52zm10-62V10.4c13.5 2 26.1 12 36.1 28.8 6.8 11.8 11.6 24.5 14.4 37.8H118zm60.6 0c-3.2-16-8.6-30.6-16-42.9-3.7-6.3-8.2-12.2-13.3-17.4C177.2 27.2 199 49.2 209.5 77h-30.9z"/></svg>