<svg xmlns="http://www.w3.org/2000/svg" viewBox="0 0 246.7 131.1"><path fill="#30545f" d="M241.7 21h-22.2V5c0-2.8-2.2-5-5-5h-37.1c-2.8 0-5 2.2-5 5v37H74.3V5c0-2.8-2.2-5-5-5H32.2c-2.8 0-5 2.2-5 5v16H5c-2.8 0-5 2.2-5 5v79.1c0 2.8 2.2 5 5 5h22.2v16c0 2.8 2.2 5 5 5h37.1c2.8 0 5-2.2 5-5V52h98.1v27.1H88.6c-2.8 0-5 2.2-5 5s2.2 5 5 5h83.8v37c0 2.8 2.2 5 5 5h37.1c2.8 0 5-2.2 5-5v-16h22.2c2.8 0 5-2.2 5-5V26c0-2.8-2.2-5-5-5zM10 100.1V31h17.2v69.1H10zm54.3 21H37.2V10h27.1v111.1zm145.2 0h-27.1V10h27.1v111.1zm27.2-21h-17.2V31h17.2v69.1z"/></svg>