<svg xmlns="http://www.w3.org/2000/svg" viewBox="0 0 604.9 604.8"><g id="Layer_2" data-name="Layer 2"><g id="Layer_1-2" data-name="Layer 1"><path d="M126.1,403.2h88.2V378H126.1A100.8,100.8,0,0,1,114,177.12a163.08,163.08,0,0,0,8.23,39.69l23.85-8.15a138.56,138.56,0,0,1-7.42-44.86c0-76.43,62.18-138.6,138.6-138.6A138.38,138.38,0,0,1,407,115.43a112.94,112.94,0,0,0-56.26,28.78l17.28,18.36a87.87,87.87,0,0,1,52-23.57l6.19-.29c.75,0,1.5-.11,2.26-.11a88.3,88.3,0,0,1,88.2,88.2,84.68,84.68,0,0,1-.91,11.9L514.14,251l12.23,1.89A62.95,62.95,0,0,1,516.71,378h-126v25.2h126a88.17,88.17,0,0,0,25.13-172.69c0-1.25.07-2.49.07-3.71A113.54,113.54,0,0,0,433,113.48,163.58,163.58,0,0,0,277.3,0C191,0,120.11,67.05,113.93,151.78A126,126,0,0,0,126.1,403.2Z" fill="#30545f"/><path d="M50.5,516.65h504v-25.2H315.1v-88.2h12.6a37.84,37.84,0,0,0,37.8-37.8v-63H340.3v63a12.6,12.6,0,0,1-12.6,12.6H315.1V277.25H289.9v100.8H277.3a12.61,12.61,0,0,1-12.6-12.6v-63H239.5v63a37.85,37.85,0,0,0,37.8,37.8h12.6v88.2H50.5Z" fill="#30545f"/><polygon points="390.7 478.8 390.7 441 327.7 441 327.7 466.2 365.5 466.2 365.5 478.8 390.7 478.8" fill="#30545f"/><polygon points="277.3 466.2 277.3 441 214.3 441 214.3 478.8 239.5 478.8 239.5 466.2 277.3 466.2" fill="#30545f"/><polygon points="365.5 541.8 239.5 541.8 239.5 529.2 214.3 529.2 214.3 567 289.9 567 289.9 579.6 264.7 579.6 264.7 604.8 340.3 604.8 340.3 579.6 315.1 579.6 315.1 567 390.7 567 390.7 529.2 365.5 529.2 365.5 541.8" fill="#30545f"/><polygon points="428.5 478.8 453.7 478.8 453.7 466.2 579.7 466.2 579.7 541.8 453.7 541.8 453.7 529.2 428.5 529.2 428.5 567 504.1 567 504.1 579.6 478.9 579.6 478.9 604.8 554.5 604.8 554.5 579.6 529.3 579.6 529.3 567 604.9 567 604.9 441 428.5 441 428.5 478.8" fill="#30545f"/><polygon points="151.3 541.8 25.3 541.8 25.3 466.2 151.3 466.2 151.3 478.8 176.5 478.8 176.5 441 0.1 441 0.1 567 75.7 567 75.7 579.6 50.5 579.6 50.5 604.8 126.1 604.8 126.1 579.6 100.9 579.6 100.9 567 176.5 567 176.5 529.2 151.3 529.2 151.3 541.8" fill="#30545f"/><rect x="289.9" y="226.8" width="25.2" height="25.2" fill="#30545f"/><rect x="289.9" y="176.4" width="25.2" height="25.2" fill="#30545f"/><rect x="340.3" y="252" width="25.2" height="25.2" fill="#30545f"/><rect x="239.5" y="252" width="25.2" height="25.2" fill="#30545f"/></g></g></svg>