<svg xmlns="http://www.w3.org/2000/svg" viewBox="0 0 245.1 238.3"><path fill="#30545f" d="M244.8 140.5c-.8-3.9-3.2-7.3-6.5-9.5l-89.9-58 22-34.1c1.5-2.3.8-5.4-1.5-6.9L120.3.8c-2.3-1.5-5.4-.8-6.9 1.5l-62.5 97c-1.5 2.3-.8 5.4 1.5 6.9l48.5 31.3c2.3 1.5 5.4.8 6.9-1.5l22-34.1 89.9 58c2.4 1.6 5.2 2.4 8.1 2.4 1.1 0 2.1-.1 3.2-.3 3.9-.8 7.3-3.2 9.5-6.5l2.3-3.6c2.1-3.4 2.8-7.5 2-11.4zM128.3 90c-1.7 0-3.3.9-4.2 2.3l-22 34.1L62 100.5l57.1-88.6 40.1 25.9-22 34.1c-1.5 2.3-.8 5.4 1.5 6.9l70.8 45.7-7.2 12.4-71.4-46c-.7-.6-1.6-.9-2.6-.9zm106 56.4L232 150c-1.5 2.3-4.6 3-6.9 1.5l-14.3-9.2 7.2-12.4 14.8 9.5c2.4 1.5 3 4.7 1.5 7zm-67.6 61.5h-9.6v-22.6c-.1-8.3-6.8-15-15.2-15h-102c-8.3 0-15.1 6.6-15.2 15v22.6h-9.6c-8.4 0-15.2 6.8-15.2 15.1 0 8.4 6.8 15.2 15.1 15.2h37.1c2.8 0 5-2.2 5-5s-2.2-5-5-5H15.2c-2.8 0-5.2-2.3-5.2-5.2 0-2.8 2.3-5.2 5.2-5.2h14.6c2.8 0 5-2.2 5-5v-27.6c0-2.8 2.3-5 5.1-5H142c2.8-.1 5.1 2.1 5.2 4.9v22.7H75.3c-2.8 0-5 2.2-5 5s2.2 5 5 5h91.4c2.8 0 5.2 2.3 5.2 5.2 0 2.8-2.3 5.1-5.2 5.2h-40.4c-2.8 0-5 2.2-5 5s2.2 5 5 5h40.4c8.4 0 15.2-6.8 15.1-15.2.1-8.3-6.7-15-15.1-15.1z"/></svg>