<svg xmlns="http://www.w3.org/2000/svg" viewBox="0 0 196 196"><path fill="#072730" d="M32.1 131.8c-8.9 8.9-8.9 23.3 0 32.1s23.3 8.9 32.1 0c8.9-8.9 8.9-23.3 0-32.1s-23.2-8.9-32.1 0zm28.8 16c0 3.4-1.3 6.6-3.7 9-5 5-13 5-18 0s-5-13 0-18 13-5 18 0c2.3 2.4 3.7 5.6 3.7 9z"/><path fill="#072730" d="M194.5 1.5c-1-1-2.4-1.5-3.8-1.5l-32.1 2c-1.2.1-2.4.6-3.2 1.5l-79.1 79c-30.5-10-63.4 6.6-73.4 37.1S9.5 183 40 193c30.5 10 63.4-6.6 73.4-37.1 3.9-11.8 3.9-24.5 0-36.2l6.9-6.9c2-1.9 2-5.1.1-7.1s-5.1-2-7.1-.1l-.1.1-9.1 9.1c-1.4 1.4-1.8 3.5-1.1 5.4 9.7 24.8-2.5 52.7-27.2 62.4-24.8 9.7-52.7-2.5-62.4-27.2s2.5-52.7 27.2-62.4c11.3-4.4 23.9-4.4 35.2 0 1.8.7 4 .3 5.4-1.1l80-80 24.5-1.5-1.4 22.2-11.3 1.1c-2.4.2-4.3 2.1-4.5 4.5l-1.1 11.4-11.4 1.1c-2.4.2-4.3 2.1-4.5 4.5l-1.1 11.4-11.4 1.1c-2.4.2-4.3 2.1-4.5 4.5L133 87.7c-.3 2.7 1.7 5.2 4.4 5.5s5.2-1.7 5.5-4.4v-.1l1.1-11.4 11.4-1.1c2.4-.2 4.3-2.1 4.5-4.5l1.1-11.4 11.4-1.1c2.4-.2 4.3-2.1 4.5-4.5l1.1-11.4 11.4-1.1c2.4-.2 4.4-2.2 4.5-4.7l2-32.1c.1-1.5-.4-2.9-1.4-3.9z"/></svg>