<svg xmlns="http://www.w3.org/2000/svg" viewBox="0 0 226 221.9"><path fill="#072730" d="M139.5 143h46.2c2.8 0 5-2.2 5-5V98.7c0-2.8-2.2-5-5-5h-46.2V47.5c0-2.8-2.2-5-5-5H95.2c-2.8 0-5 2.2-5 5v46.2H44c-2.8 0-5 2.2-5 5V138c0 2.8 2.2 5 5 5h46.2v46.2c0 2.7 2.1 5 4.9 5 .5 0 .9-.1 1.4-.2.4.1.8.2 1.3.2h36.7c2.8 0 5-2.2 5-5V143zm-5-10c-2.8 0-5 2.2-5 5v46.2h-29.3V138c0-2.8-2.2-5-5-5H49v-29.3h46.2c2.8 0 5-2.2 5-5V52.5h29.3v46.2c0 2.8 2.2 5 5 5h46.2V133h-46.2z"/><path fill="#072730" d="M115.2 0H113C50.6 0 0 50.6 0 113.1c0 50.5 33.6 94.9 82.2 108.7 2.7.8 5.4-.8 6.2-3.4.8-2.7-.8-5.4-3.4-6.2C30.3 196.7-1.5 139.7 14 85c12.5-44.4 52.9-75 99-75h2c56.9 1.1 102.1 48.1 101 105-.9 45.1-31 84.4-74.3 97-2.7.8-4.2 3.5-3.4 6.2.8 2.7 3.5 4.2 6.2 3.4 22.9-6.7 43.1-20.4 57.8-39.2 38.3-49.3 29.4-120.3-19.9-158.6C163.1 8.8 139.5.5 115.2 0z"/></svg>