<svg xmlns="http://www.w3.org/2000/svg" viewBox="0 0 242.7 220"><path fill="#30545f" d="M213.9 49h-3.6V4.8c0-.2 0-.5-.1-.7 0-.2-.1-.3-.1-.5s-.1-.3-.1-.5c-.1-.2-.2-.5-.4-.7 0-.1-.1-.1-.1-.2-.2-.3-.4-.5-.6-.8l-.3-.3c-.1-.1-.3-.2-.4-.3-.1-.1-.3-.1-.4-.2-.1-.1-.3-.2-.5-.2-.1-.1-.3-.1-.4-.1-.2-.1-.3-.1-.5-.1-.4-.2-.7-.2-1-.2h-.3c-.4 0-.8.1-1.2.2-.1 0-.3.1-.4.1-.2.1-.5.2-.7.4-.1 0-.1.1-.2.1-61.1 40.7-121.5 38-122.2 37.9H5c-2.8 0-5 2.2-5 5v73.9c0 2.8 2.2 5 5 5l19-.1V215c0 2.8 2.2 5 5 5h24c2.8 0 5-2.2 5-5v-77.1c0-2.8-2.2-5-5-5s-5 2.2-5 5V210H34v-92.4c0-2.8-2.2-5-5-5l-19 .1v-64h65.2v62.8c-12-.9-19.8-.9-20.8-.9-2.8 0-5 2.3-5 5 0 2.8 2.3 5 5 5h.4c6.1 0 88.4.8 147.8 40.3 2.3 1.5 5.4.9 6.9-1.4.6-.9.9-1.9.8-3V107h3.6c16-.1 28.9-13.1 28.8-29.1-.1-16-12.9-28.8-28.8-28.9zm-128.7-.2c15.7-.1 63.9-3.4 115.2-34.7v133.6c-39.5-23.6-85.5-32.2-115.2-35.3V48.8zM213.9 97h-3.6V59h3.6c10.5.1 18.9 8.6 18.8 19.1 0 10.4-8.4 18.8-18.8 18.9z"/></svg>