<svg xmlns="http://www.w3.org/2000/svg" viewBox="0 0 203.9 221.5"><path fill="#30545f" d="M170.5 0H33.3C14.9 0 0 14.9 0 33.3v154.8c0 18.4 14.4 33.3 32 33.3h27c2.8 0 5-2.2 5-5s-2.2-5-5-5H32c-12.1 0-22-10.5-22-23.3V69.2h183.9v118.9c0 12.9-9.7 23.3-21.6 23.3h-26.6c-2.8 0-5 2.2-5 5s2.2 5 5 5h26.6c17.4 0 31.6-15 31.6-33.3V33.3c0-18.4-15-33.3-33.4-33.3zM10 61.2V33.3C10 20.5 20.5 10 33.3 10h137.2c12.9 0 23.3 10.5 23.3 23.3v27.9H10z"/><path fill="#30545f" d="M155.1 130.4c12.5 0 22.7-10.1 22.7-22.6 0-12.5-10.1-22.7-22.6-22.7-10.6 0-19.8 7.3-22.1 17.7-13.1 2.3-29.4 10.5-37 35.7-3.4 11.3-11.7 19.5-24.5 24.4-5.1-11.5-18.5-16.7-30-11.6s-16.7 18.5-11.6 30 18.5 16.7 30 11.6c8-3.5 13.2-11.3 13.5-20.1.1 0 .3-.1.4-.1 16.3-5.9 27.3-16.7 31.7-31.3 5.8-19.3 17.6-26.3 27.5-28.5 2.3 10.2 11.4 17.5 22 17.5zm-95.4 50.7c-4.9 4.9-13 4.9-17.9 0s-4.9-13 0-17.9c4.9-4.9 12.9-4.9 17.9 0 5 4.9 5 12.9 0 17.9zm86.4-82.3c4.9-4.9 13-4.9 17.9 0s4.9 13 0 17.9c-4.9 4.9-13 4.9-17.9 0-2.4-2.4-3.7-5.6-3.7-8.9 0-3.4 1.3-6.6 3.7-9zM34.6 22.7c-7.1 0-12.8 5.7-12.8 12.8 0 7.1 5.7 12.8 12.8 12.8 7.1 0 12.8-5.7 12.8-12.8.1-7.1-5.7-12.8-12.8-12.8zm0 17.7c-2.7 0-4.8-2.2-4.8-4.8 0-2.7 2.2-4.8 4.8-4.8 2.7 0 4.8 2.2 4.8 4.8.1 2.6-2.1 4.8-4.8 4.8zm33.3-17.7c-7.1 0-12.8 5.7-12.8 12.8 0 7.1 5.7 12.8 12.8 12.8 7.1 0 12.8-5.7 12.8-12.8 0-7.1-5.7-12.8-12.8-12.8z"/></svg>