<svg xmlns="http://www.w3.org/2000/svg" viewBox="0 0 170.2 190"><path fill="#30545f" d="M56 66.9h32.6c2.8 0 5-2.2 5-5s-2.2-5-5-5H56c-2.8 0-5 2.2-5 5 0 2.7 2.3 5 5 5zm0-25.7h89.2c2.8 0 5-2.2 5-5s-2.2-5-5-5H56c-2.8 0-5 2.2-5 5s2.3 5 5 5zm0 52.3h32.6c2.8 0 5-2.2 5-5s-2.2-5-5-5H56c-2.8 0-5 2.2-5 5s2.3 5 5 5zm0 26.6h89.2c2.8 0 5-2.2 5-5s-2.2-5-5-5H56c-2.8 0-5 2.2-5 5s2.3 5 5 5z"/><path fill="#30545f" d="M165.2 0h-129c-2.8 0-5 2.2-5 5v164.4c0 5.8-4.7 10.6-10.6 10.6-5.8 0-10.6-4.7-10.6-10.6V58.9c0-2.8-2.2-5-5-5s-5 2.2-5 5v110.6C0 180.8 9.2 190 20.6 190h144.6c2.8 0 5-2.2 5-5V5c0-2.8-2.3-5-5-5zm-5 180h-122c1.9-3.2 3-6.9 3-10.6V10h119v170z"/><path fill="#30545f" d="M20.4 174.4c2.8 0 5-2.2 5-5V58.9c0-2.8-2.2-5-5-5s-5 2.2-5 5v110.6c0 2.7 2.3 4.9 5 4.9zM145.3 52.3h-36.8c-2.6 0-4.7 2.1-4.7 4.7v35.4c0 2.6 2.1 4.7 4.7 4.7h36.8c2.6 0 4.7-2.1 4.7-4.7V57c0-2.6-2.1-4.7-4.7-4.7zm-4.6 35.5h-27.5V61.6h27.5v26.2z"/></svg>