<svg xmlns="http://www.w3.org/2000/svg" viewBox="0 0 140.92 109.64"><g id="Layer_2" data-name="Layer 2"><g id="Ñëîé_1" data-name="Ñëîé 1"><path d="M122.26,41.68V40.14a26.67,26.67,0,0,0-38.7-23.79,36.3,36.3,0,0,0-66.14,25.7,24.63,24.63,0,0,0,7.24,48.18h9.41a2,2,0,1,0,0-4H24.66A20.64,20.64,0,0,1,18.26,46a38.11,38.11,0,0,0,2.16,5.86A2,2,0,0,0,22.23,53a2.11,2.11,0,0,0,.86-.19,2,2,0,0,0,1-2.65h0a32.3,32.3,0,1,1,60.27-22.7,2,2,0,0,0,3.84-1.1,34.75,34.75,0,0,0-2.57-6.47,22.67,22.67,0,0,1,30.1,30.85,2,2,0,0,0,3.53,1.87,26.2,26.2,0,0,0,2.45-6.85,20.63,20.63,0,0,1-5.51,40.52h-9.85a2,2,0,0,0,0,4h9.91a24.63,24.63,0,0,0,6.06-48.51Z" fill="#30545f"/><path d="M61.26,32.64a6.58,6.58,0,0,0-2,12.86v62.14a2,2,0,0,0,4,0V45.5a6.58,6.58,0,0,0-2-12.86Zm0,9.17a2.59,2.59,0,1,1,2.59-2.59,2.59,2.59,0,0,1-2.59,2.59Z" fill="#30545f"/><path d="M87.18,61.22a6.59,6.59,0,1,0-6.27-8.59h-9.5a2,2,0,0,0-2,2V92.91a2,2,0,0,0,4,0V56.63h7.5A6.6,6.6,0,0,0,87.18,61.22Zm0-9.18a2.59,2.59,0,1,1-2.59,2.59h0A2.59,2.59,0,0,1,87.18,52Z" fill="#30545f"/><path d="M34.44,106.23a2.05,2.05,0,0,0-.59,1.41,2,2,0,0,0,3.42,1.41,2,2,0,0,0,.58-1.41,2,2,0,0,0-2-2A2.06,2.06,0,0,0,34.44,106.23Z" fill="#30545f"/><path d="M27.19,106.22a2,2,0,0,0,1.42,3.42,2.05,2.05,0,0,0,1.41-.59,2,2,0,0,0,0-2.83A2.08,2.08,0,0,0,27.19,106.22Z" fill="#30545f"/><path d="M20,106.23a2.05,2.05,0,0,0-.59,1.41,2,2,0,0,0,4,0,1.92,1.92,0,0,0-.58-1.42A2.06,2.06,0,0,0,20,106.23Z" fill="#30545f"/><path d="M110,106.23a2,2,0,1,0,3.42,1.41,2,2,0,0,0-.59-1.42A2.06,2.06,0,0,0,110,106.23Z" fill="#30545f"/><path d="M102.79,106.23a2.05,2.05,0,0,0-.59,1.41,2,2,0,1,0,2-2A2.06,2.06,0,0,0,102.79,106.23Z" fill="#30545f"/><path d="M70,99.06a2,2,0,0,0-.59,1.42,2.07,2.07,0,0,0,.59,1.41,2,2,0,0,0,2.82,0,2,2,0,0,0,0-2.83A2.07,2.07,0,0,0,70,99.06Z" fill="#30545f"/><path d="M70,106.23a2,2,0,1,0,2.83,0A2.06,2.06,0,0,0,70,106.23Z" fill="#30545f"/><path d="M50.77,64.85H44.46a6.58,6.58,0,1,0,0,4h4.31v36.79h-6a2,2,0,1,0,0,4h8a2,2,0,0,0,2-2V66.85A2,2,0,0,0,50.77,64.85ZM38.18,69.44a2.59,2.59,0,1,1,2.59-2.59h0A2.6,2.6,0,0,1,38.18,69.44Z" fill="#30545f"/><path d="M91.08,75.84a6.59,6.59,0,1,0,0-4H81.59a2,2,0,0,0-2,2v33.8a2,2,0,0,0,2,2H97a2,2,0,0,0,0-4H83.59V75.84Zm6.28-4.59a2.59,2.59,0,1,1-2.59,2.59h0A2.59,2.59,0,0,1,97.36,71.25Z" fill="#30545f"/></g></g></svg>