<svg xmlns="http://www.w3.org/2000/svg" viewBox="0 0 226 221.9"><path fill="#072730" d="M179.6 98.7c-.1-27.6-22.1-50.2-49.7-51H74.7c-2.8 0-5 2.2-5 5V176c0 2.8 2.2 5 5 5H106c2.8 0 5-2.2 5-5v-26.2h19c27.5-1 49.5-23.5 49.6-51.1zm-50.3 41h-23.4c-2.8 0-5 2.2-5 5v26.2H79.7V57.6h49.6c22.7.4 40.7 19 40.4 41.7-.4 22.2-18.3 40-40.4 40.4z"/><path fill="#072730" d="M126.9 77.4H106c-2.8 0-5 2.2-5 5V117c0 2.8 2.2 5 5 5h20.9c12.3-.4 22-10.7 21.6-23-.4-11.8-9.9-21.2-21.6-21.6zm-.5 34.6h-15.5V87.4h15.4c6.8.2 12.1 5.9 11.9 12.7-.1 6.5-5.3 11.7-11.8 11.9z"/><path fill="#072730" d="M194.4 34.6C173.7 13 145.1.5 115.2 0H113C50.6 0 0 50.6 0 113.1c0 50.5 33.6 94.9 82.2 108.7 2.7.8 5.4-.8 6.2-3.5.8-2.7-.8-5.4-3.5-6.2-54.7-15.5-86.5-72.5-71-127.2C26.5 40.6 66.9 10 113 10h2c56.9 1.1 102.1 48.1 101 105-.4 22.2-8 43.7-21.7 61.2-13.4 17.1-31.8 29.6-52.7 35.7-2.7.7-4.3 3.4-3.6 6.1.7 2.7 3.4 4.3 6.1 3.6.1 0 .2-.1.3-.1 22.9-6.7 43.1-20.4 57.8-39.2 34.5-44.3 31.2-107.2-7.8-147.7z"/></svg>