<svg xmlns="http://www.w3.org/2000/svg" viewBox="0 0 181.1 215.3"><path fill="#072730" d="M74.3 47.8l10.3.2c.1.5.2 1.1.3 1.6 1 9.2-5.6 20.2-12.4 25.8-2.1 1.8-2.4 4.9-.7 7 .9 1.1 2.3 1.8 3.8 1.8l49.2.8h.1c2.8 0 5-2.2 5-5s-2.2-5-5-5l-38-.6c5.3-7.3 9-16.7 8-26 0-.1 0-.2-.1-.3l14.6.2h.1c2.8 0 5-2.2 5-5s-2.2-5-5-5L91.7 38c-.6-1.4-1.2-2.7-1.8-4-.4-.9-.8-1.7-1.2-2.6-3.1-6.9-3.5-11.1-1.4-14.7 2.4-4.1 7.6-6.8 12.9-6.8h.3c15.2.3 16.5 11.5 16.6 13.8.1 2.8 2.5 4.9 5.2 4.8 2.7-.1 4.9-2.4 4.8-5.1 0-.2-1.1-23-26.5-23.4-9-.2-17.6 4.4-21.9 11.6-5.1 8.5-2.2 17.3.8 24.1.3.7.7 1.5 1 2.2l-6.1-.1h-.1c-2.8 0-5 2.2-5 5s2.3 5 5 5z"/><path fill="#072730" d="M180.2 183.6c-1.6-2.3-4.7-2.9-6.9-1.3-5.8 3.7-11.9 7-18.2 9.7-7.3-11.2-13.1-23.3-17.4-36h4.5c2.8 0 5-2.2 5-5v-16.9c0-2.8-2.2-5-5-5h-10.3c-.5-4.4-.7-8.7-.7-13.1h11c2.8 0 5-2.2 5-5s-2.2-5-5-5H62.6c-.5-7.5-1.8-15-3.6-22.3C51.7 55 37.3 37.6 36.6 36.9c-1.8-2.1-5-2.3-7.1-.5-2 1.8-2.3 4.8-.6 6.9.1.2 13.6 16.4 20.3 42.9 9.1 35.7 2.1 71.6-20.7 106.8l-.3.6c-7.1-3.3-14-7-20.5-11.3-2.3-1.5-5.4-.9-6.9 1.3-1.5 2.3-.9 5.4 1.3 6.9.1 0 .1.1.2.1 19.3 12.7 41.1 21 63.9 24.5.2 0 .5.1.7.1 2.8 0 5-2.2 5-5 0-2.5-1.8-4.6-4.3-5-10.3-1.5-20.3-4.1-30-7.8C46 184.6 52.5 170.6 57 156h70.2c4.4 14.1 10.6 27.5 18.5 39.9-11.9 4.5-24.2 7.7-36.8 9.4-2.7.4-4.7 2.9-4.3 5.6.3 2.5 2.5 4.3 5 4.3h.7c40.3-5.4 67.6-23.9 68.8-24.7 2.1-1.5 2.7-4.6 1.1-6.9zm-58.4-54.5h-7V116h6.4c0 4.3.2 8.7.6 13.1zm-42.4 0V116h8.5v13.1h-8.5zM97.9 116h6.9v13.1h-6.9V116zM63 116h6.4v13.1h-7c.4-4.6.6-8.9.6-13.1zm-1.4 23.1h75.6v6.9H60.4l1.2-6.9z"/></svg>