<svg xmlns="http://www.w3.org/2000/svg" viewBox="0 0 226 225.9"><path fill="#30545f" d="M210.2 106.2c3.1 0 6.3.5 9.2 1.5 2.6.9 5.5-.5 6.3-3.1.2-.5.3-1.1.3-1.6V49.3c0-2.8-2.2-5-5-5h-47.3c3-21.2-11.8-40.9-33-43.9s-40.9 11.8-43.9 33c-.5 3.6-.5 7.3 0 10.9H49.5c-2.8 0-5 2.2-5 5v47.4c-21.2-3.1-41 11.6-44 32.8s11.6 41 32.8 44c3.7.5 7.5.5 11.2 0v47.4c0 2.8 2.2 5 5 5h53.7c2.8 0 5-2.2 5-5s-2.2-5-5-5H54.5v-48.7c0-2.8-2.2-5-5-5-.5 0-1.1.1-1.6.3-15.1 5-31.4-3.2-36.4-18.3-5-15.1 3.2-31.4 18.3-36.4 5.9-1.9 12.2-1.9 18.1 0 2.6.9 5.4-.6 6.3-3.2.2-.5.3-1 .3-1.6V54.3h48.6c2.8 0 5-2.2 5-5 0-.5-.1-1-.2-1.5-4.9-15.2 3.4-31.4 18.6-36.3s31.4 3.4 36.3 18.6c1.9 5.8 1.9 12 0 17.8-.9 2.6.6 5.4 3.2 6.3.5.2 1 .2 1.5.2H216v42.4c-21.2-3.2-41 11.4-44.2 32.6s11.4 41 32.6 44.2c3.9.6 7.8.6 11.7 0V216h-48.7c-2.8 0-5 2.2-5 5s2.2 5 5 5H221c2.8 0 5-2.2 5-5v-53.7c0-2.8-2.2-5-5-5-.5 0-1.1.1-1.6.3-15.1 5.1-31.5-3-36.6-18.1s3-31.5 18.1-36.6c3.1-1.2 6.2-1.7 9.3-1.7z"/></svg>