<svg xmlns="http://www.w3.org/2000/svg" viewBox="0 0 237.7 230.7"><path fill="#072730" d="M214.7 105.4c-4.6-3.3-9.6-6.1-14.8-8.3 15.1-11.9 16.8-27 15.4-37.8-1-7.6-3.5-14.9-7.4-21.5-1.4-2.4-4.5-3.1-6.8-1.7-1.2.7-2 1.8-2.3 3.2-.1.5-3.2 12.4-21.4 20.8-8 3.7-13.1 8.9-15.3 15.5-.5 1.5-.8 3.1-1 4.7l-10.9-25.7c-1.1-2.5-4-3.7-6.6-2.7-2.5 1.1-3.7 4-2.7 6.6l13.5 32c-9.2.5-18.4 2.4-27 5.6V39.9c0-8-3.8-15.6-10.3-20.4l5.1-12.7c1-2.6-.2-5.5-2.8-6.5-.4-.2-1-.3-1.6-.3H9.8c-2.8 0-5 2.2-5 5 0 .7.1 1.4.4 2l5.4 12.2C4 24 0 31.7 0 39.9v150.9c0 8 3.8 15.6 10.3 20.4l-5.1 12.6c-1 2.6.2 5.5 2.8 6.5.6.2 1.2.4 1.9.4h107.9c2.8 0 5-2.2 5-5 0-.7-.1-1.4-.4-2l-5.4-12.2c.3-.2.6-.4.9-.7C150.1 236 196.8 230.3 222 198a74.41 74.41 0 0 0 15.7-45.7c0-19.6-8-35.9-23-46.9zm-43-26.8c1.3-3.8 4.6-7 10-9.4C193 64 199.6 57.4 203.5 52c3.4 10.2 5.4 27.1-12.2 39.2-.9.6-1.5 1.5-1.9 2.5-5.3-1.4-10.8-2.4-16.3-2.8-.1-.4-.2-.7-.4-1.1-.1-.2-2.9-5.7-1-11.2zM110.4 10l-2.1 5.2c-2-.5-4-.7-6.1-.7H25.4c-1.9 0-3.7.2-5.6.6L17.5 10h92.9zM10 39.9c0-8.5 6.9-15.4 15.4-15.4h76.8c8.5 0 15.4 6.9 15.4 15.4V66H10V39.9zm0 76.9h.2c.8 0 1.5-.2 2.2-.5l41.7-20.2c2.5-1.2 3.5-4.2 2.3-6.7-1.2-2.5-4.2-3.5-6.7-2.3L10 106.3V76h107.6v24.8c-2.4 1.4-4.7 2.9-6.9 4.6-8 6.2-14.1 14.4-17.6 23.9l-23.3 11.1c-2.5 1.2-3.6 4.2-2.4 6.7 1.2 2.5 4.2 3.6 6.7 2.4l15.8-7.5c-.5 3.4-.7 6.9-.7 10.4 0 1.3 0 2.7.1 4H10v-39.6zm0 74v-24.6h80.5c2.7 14.2 9.6 27.3 19.7 37.7-.5.3-1 .6-1.5.8-2 .9-4.2 1.4-6.5 1.4H25.4c-8.5.1-15.4-6.8-15.4-15.3zm7.2 29.9l2.1-5.2c2 .5 4 .7 6.1.7h76.8c1.9 0 3.8-.2 5.6-.6l2.3 5.1H17.2zm146.2-4.2c-35.5 0-64.2-28.8-64.3-64.3 0-16.7 5.9-29.8 17.7-38.9 11-8.6 26.7-13.1 45.2-13.1 18.5 0 35.1 4.7 46.7 13.2 12.6 9.2 18.9 22.3 18.9 38.8.1 35.5-28.7 64.3-64.2 64.3z"/><path fill="#072730" d="M216 150.2c-8.9-30.2-41.6-34-42.9-34.2-2.7-.3-5.2 1.7-5.5 4.5s1.7 5.2 4.5 5.5c.3 0 27.4 3.1 34.4 27 .8 2.6 3.6 4.2 6.2 3.4s4.1-3.6 3.3-6.2z"/></svg>