<svg xmlns="http://www.w3.org/2000/svg" viewBox="0 0 256.5 254.7"><path fill="#30545f" d="M129 53.9c14.9 0 26.9-12.1 26.9-26.9S143.8 0 129 0s-27 12.1-27 26.9c.1 14.9 12.1 26.9 27 27zm0-43.9c9.3 0 16.9 7.6 16.9 16.9s-7.6 16.9-16.9 16.9c-9.3 0-16.9-7.6-16.9-16.9 0-9.3 7.5-16.9 16.9-16.9zm-24.2 108.5h50c2.8 0 5-2.2 5-5V85c0-14.4-11.7-26.1-26.1-26.1H126c-14.4 0-26.1 11.7-26.1 26.1v28.6c-.1 2.7 2.1 4.9 4.9 4.9zm5-33.5c0-8.9 7.2-16.1 16.1-16.1h7.7c8.9 0 16.1 7.2 16.1 16.1v23.6h-40V85zm76 1.7c11.4 0 20.7-9.3 20.7-20.7 0-11.4-9.3-20.7-20.7-20.7-11.4 0-20.7 9.3-20.7 20.7 0 11.4 9.3 20.7 20.7 20.7zm0-31.4c5.9 0 10.7 4.8 10.7 10.7 0 5.9-4.8 10.7-10.7 10.7-5.9 0-10.7-4.8-10.7-10.7 0-5.9 4.8-10.7 10.7-10.7zM168.5 133h35.8c2.8 0 5-2.2 5-5v-20.4c0-11.1-9-20.1-20.1-20.1h-5.5c-11.1 0-20.1 9-20.1 20.1V128c-.1 2.8 2.1 5 4.9 5zm5-25.5c0-5.6 4.5-10.1 10.1-10.1h5.5c5.6 0 10.1 4.5 10.1 10.1V123h-25.8v-15.5zM72.3 86.7C83.7 86.7 93 77.4 93 66s-9.3-20.7-20.7-20.7c-11.4 0-20.7 9.3-20.7 20.7 0 11.4 9.2 20.7 20.7 20.7zm0-31.4C78.2 55.3 83 60.1 83 66c0 5.9-4.8 10.7-10.7 10.7S61.6 71.9 61.6 66c0-5.9 4.8-10.7 10.7-10.7zM54.9 133h35.8c2.8 0 5-2.2 5-5v-20.4c0-11.1-9-20.1-20.1-20.1h-5.5c-11.1 0-20.1 9-20.1 20.1V128c-.1 2.8 2.2 5 4.9 5zm5-25.5c0-5.6 4.5-10.1 10.1-10.1h5.5c5.6 0 10.1 4.5 10.1 10.1V123H59.9v-15.5zM254.8 149c-9.6-8.4-23.5-9.5-34.3-2.6-5.3-3.5-11.7-5-18-4.4-7.9.7-15.1 4.7-20 10.9L168 171.2c-1.7 2.2-1.4 5.3.8 7 2.2 1.7 5.3 1.4 7-.8l14.5-18.2c3.2-4.1 7.9-6.7 13.1-7.2 3.2-.3 6.5.3 9.4 1.6l-25.4 31.9h-66.9c-1.7-.2-2.9-1.8-2.7-3.5.2-1.4 1.3-2.5 2.7-2.7h18c16.9 0 30.7-14.3 30.7-31.9 0-2.8-2.2-5-5-5h-57.1c-23.8 0-46.1 12.3-59.5 32.9L.8 246.9c-1.5 2.3-.9 5.4 1.4 6.9s5.4.9 6.9-1.4c0 0 0-.1.1-.1L56 180.8c11.6-17.7 30.7-28.3 51.2-28.3h51.5c-2.1 9.7-10.4 16.9-20.1 16.9h-18c-7.2.2-12.9 6.2-12.7 13.5.2 6.9 5.8 12.5 12.7 12.7h69.3c1.5 0 3-.7 3.9-1.9l27.4-34.4c3.2-4.1 7.9-6.7 13.1-7.2 3.4-.3 6.9.3 10 1.9l-41.8 52.6c-2.9 3.7-7.2 5.8-11.9 5.9H98.9c-8.8 0-16.9 4.5-21.7 11.9L62.4 247c-1.5 2.3-.9 5.4 1.4 6.9s5.4.9 6.9-1.4c0 0 0-.1.1-.1l14.8-22.6c2.9-4.6 7.9-7.3 13.3-7.4h91.6c7.7 0 15-3.6 19.7-9.6l45.2-56.8c1.7-2.2 1.4-5.2-.6-7z"/></svg>