<svg xmlns="http://www.w3.org/2000/svg" viewBox="0 0 189.9 138.4"><path fill="#072730" d="M94.5 61.9c17.1 0 30.9-13.9 30.9-30.9S111.6 0 94.5 0c-17.1 0-31 13.9-31 30.9.1 17.1 13.9 31 31 31zm0-51.9c11.6 0 20.9 9.4 20.9 20.9s-9.4 21-20.9 21c-11.6 0-20.9-9.4-20.9-20.9 0-11.6 9.3-21 20.9-21zm5.5 59.6h-9.1c-16.6 0-30 13.4-30 30v33.8c0 2.8 2.2 5 5 5H125c2.8 0 5-2.2 5-5V99.6c0-16.6-13.4-30-30-30zm20 58.8H70.9V99.6c0-11 9-20 20-20h9.1c11 0 20 9 20 20v28.8zM24.6 63.6c12.6 0 22.8-10.2 22.8-22.8C47.4 28.2 37.2 18 24.6 18 12 18.1 1.8 28.3 1.8 40.9c0 12.6 10.2 22.7 22.8 22.7zm0-35.5c7 0 12.8 5.7 12.8 12.8 0 7-5.7 12.8-12.8 12.8-7 0-12.8-5.7-12.8-12.8 0-7 5.7-12.8 12.8-12.8zm3.8 37.7h-6.2C9.9 65.8 0 75.7 0 87.9V111c0 2.8 2.2 5 5 5h40.5c2.8 0 5-2.2 5-5V87.9c-.1-12.2-9.9-22.1-22.1-22.1zM40.5 106H10V87.9c0-6.7 5.4-12.1 12.1-12.1h6.2c6.7 0 12.1 5.4 12.1 12.1V106zM164 63.6c12.6 0 22.8-10.2 22.8-22.8S176.6 18.1 164 18.1c-12.6 0-22.8 10.2-22.8 22.8 0 12.6 10.2 22.7 22.8 22.7zm0-35.5c7 0 12.8 5.7 12.8 12.8S171 53.6 164 53.6c-7 0-12.8-5.7-12.8-12.8 0-6.9 5.7-12.7 12.8-12.7zm3.8 37.7h-6.2c-12.2 0-22.1 9.9-22.1 22.1V111c0 2.8 2.2 5 5 5H185c2.8 0 5-2.2 5-5V87.9c-.1-12.2-10-22.1-22.2-22.1zm12.1 40.2h-30.5V87.9c0-6.7 5.4-12.1 12.1-12.1h6.2c6.7 0 12.1 5.4 12.1 12.1V106z"/></svg>