<svg xmlns="http://www.w3.org/2000/svg" viewBox="0 0 201.3 207"><path fill="#30545f" d="M178.4 0h-120c-12.7 0-23 10.3-23 23v40.8c-18 0-32.6 14.6-32.6 32.6S17.4 129 35.4 129c14.2 0 26.7-9.1 31-22.6h32.1c2.8 0 5-2.2 5-5s-2.2-5-5-5H68c0-14.1-9.1-26.7-22.6-31V23c0-7.2 5.8-13 13-13h119.9c7.2 0 13 5.8 13 13v60.4c.1 7.1-5.5 12.9-12.6 13-12.2 0-24.1 4.2-33.6 11.9l-18.9 15.2v-25c0-2.8-2.2-5-5-5s-5 2.2-5 5v34.7c0 3 2.4 5.3 5.4 5.3 1.2 0 2.4-.4 3.3-1.2l26.5-21.4c7.7-6.2 17.4-9.7 27.3-9.7 12.6-.1 22.7-10.4 22.6-23V23c0-12.7-10.3-23-22.9-23zM58 96.4c0 12.5-10.1 22.6-22.6 22.6s-22.6-10.1-22.6-22.6c0-12.5 10.1-22.6 22.6-22.6C47.9 73.8 58 83.9 58 96.4z"/><path fill="#30545f" d="M68.1 56c0 7.6 6.1 13.7 13.7 13.7S95.5 63.6 95.5 56s-6.1-13.7-13.7-13.7c-7.5 0-13.6 6.1-13.7 13.7zm19.5 0c0 3.2-2.6 5.7-5.7 5.7s-5.7-2.6-5.7-5.7 2.6-5.7 5.7-5.7 5.7 2.6 5.7 5.7zm46.1 0c0-7.6-6.1-13.7-13.7-13.7s-13.7 6.1-13.7 13.7 6.1 13.7 13.7 13.7c7.5 0 13.7-6.1 13.7-13.7zm-19.5 0c0-3.2 2.6-5.7 5.7-5.7 3.2 0 5.7 2.6 5.7 5.7s-2.6 5.7-5.7 5.7-5.6-2.5-5.7-5.7zm43.9 13.7c7.6 0 13.7-6.1 13.7-13.7s-6.1-13.7-13.7-13.7-13.7 6.1-13.7 13.7 6.1 13.7 13.7 13.7zm0-19.4c3.2 0 5.7 2.6 5.7 5.7s-2.6 5.7-5.7 5.7-5.7-2.6-5.7-5.7 2.5-5.7 5.7-5.7zM36.5 134.5C16.3 134.5 0 150.8 0 170.9V202c0 2.8 2.2 5 5 5h62.9c2.8 0 5-2.2 5-5v-31.1c0-20.1-16.3-36.4-36.4-36.4zM62.9 197H10v-26.1c.2-14.6 12.2-26.3 26.8-26.1 14.4.2 25.9 11.8 26.1 26.1V197z"/></svg>