<svg xmlns="http://www.w3.org/2000/svg" viewBox="0 0 262 244.7"><path fill="#072730" d="M68.3 119.8c-3.1 9.4-2.3 19.7 2.2 28.5-7.2 2.5-11 10.4-8.5 17.6 2.5 7.2 10.4 11 17.6 8.5 3.8-1.3 6.9-4.3 8.3-8.1 4.8 2.6 10 4.4 15.4 5.1-2.4 7.2 1.5 15 8.7 17.4 7.2 2.4 15-1.5 17.4-8.7 1.4-4.2.7-8.8-1.8-12.4 8.9-4.2 15.8-11.8 19-21.1.9-2.6-.5-5.5-3.1-6.3l-29.7-10.1 9.1-26.8c.9-2.6-.5-5.5-3.1-6.3-21.6-7.5-44.7 2.8-51.5 22.7zm10.4 42.7c-.7 2-2.8 3-4.8 2.4-2-.7-3-2.8-2.4-4.8s2.8-3 4.8-2.4c2 .7 3 2.8 2.4 4.8zm41.4 14.4c-.7 2-2.8 3-4.8 2.4s-3-2.8-2.4-4.8 2.8-3 4.8-2.4c2 .6 3 2.8 2.4 4.8zm15.1-29C128.5 159.6 113 165 98.4 160s-23.6-18.6-21.8-32l58.6 19.9zm-23.4-42.8l-7.4 21.7-24.6-8.4c6-10.3 18.9-15.7 32-13.3z"/><path fill="#072730" d="M143.9 138.5c2.6.9 5.4-.5 6.3-3.1 1-2.8 3.8-4.6 6.8-4.2 2.7.3 5.2-1.6 5.5-4.4.3-2.7-1.6-5.1-4.3-5.5-7.7-1-15 3.6-17.5 10.9-.8 2.6.6 5.4 3.2 6.3z"/><path fill="#072730" d="M261.9 128.4c0-.1 0-.3.1-.4v-1c0-.2 0-.3-.1-.5s-.1-.3-.1-.4c-.1-.2-.1-.3-.2-.5 0-.1-.1-.2-.1-.3 0-.1-.1-.1-.1-.1-.1-.2-.2-.3-.3-.4-.1-.1-.2-.3-.3-.4-.1-.1-.2-.2-.3-.4-.1-.1-.2-.2-.4-.3-.1 0-.1-.1-.2-.1l-56.7-42c-2.2-1.6-5.4-1.2-7 1s-1.2 5.4 1 7l30.9 22.9L80.2 62.1c1.6-4.1 2.1-8.6 1.5-13-.7-5.1-2.9-9.9-6.3-13.7L92.6 12l53.7 39.8c2.2 1.6 5.4 1.2 7-1s1.2-5.4-1-7L94.5 1c-2.2-1.6-5.3-1.2-7 1L64.6 33c-1.6 2.2-1.2 5.4 1 7 3.4 2.5 5.6 6.3 6.1 10.4.4 2.8 0 5.7-1.1 8.4L44.8 50c-2.6-.9-5.5.5-6.3 3.1L26 89.7c-.9 2.6.5 5.5 3.1 6.3 8.2 2.8 12.5 11.8 9.7 19.9-2.8 8.1-11.6 12.5-19.8 9.8-2.6-.9-5.5.5-6.3 3.1L.3 165.3c-.9 2.6.5 5.5 3.1 6.3l213.8 72.7c2.6.9 5.5-.5 6.3-3.1l12.4-36.5c.9-2.6-.5-5.5-3.1-6.3-8.1-2.9-12.4-11.9-9.4-20 2.9-7.9 11.5-12.2 19.5-9.6 2.6.9 5.5-.5 6.3-3.1l12.4-36.5v-.2c.2-.3.3-.4.3-.6zm-20.6 29.7c-14.1-1.9-27 8-28.8 22.1-1.4 10.3 3.6 20.4 12.6 25.6l-9.4 27.5-204.4-69.5 9.4-27.5c14.1 1.9 27-8 28.8-22.1 1.4-10.3-3.6-20.4-12.6-25.6l9.4-27.5 25.2 8.6 179.2 61-9.4 27.4z"/><path fill="#072730" d="M181.3 141.2c2.6.9 5.4-.5 6.3-3.1l5.2-15.3c.9-2.6-.6-5.4-3.2-6.3-2.6-.9-5.4.5-6.3 3.1l-5.2 15.3c-.8 2.6.6 5.4 3.2 6.3zm-11.2 33c2.6.9 5.5-.5 6.3-3.1l5.2-15.3c.9-2.6-.6-5.4-3.2-6.3-2.6-.9-5.4.5-6.3 3.1l-5.2 15.3c-.8 2.6.6 5.4 3.2 6.3zm-9.2 11.4l-5.2 15.3c-.9 2.6.5 5.5 3.1 6.4 2.6.9 5.5-.5 6.4-3.1l5.2-15.3c.9-2.6-.5-5.5-3.1-6.4-2.6-.9-5.4.5-6.4 3.1.1 0 .1 0 0 0z"/></svg>