<svg xmlns="http://www.w3.org/2000/svg" width="100" height="100" viewBox="0 0 100 100">
  <g id="user_placeholder" transform="translate(-628 -178)">
    <path id="Path_461" data-name="Path 461" d="M100,50A50,50,0,1,1,50,0a50,50,0,0,1,50,50Zm0,0" transform="translate(628 178)" fill="#337ab7"/>
    <g id="Group_332" data-name="Group 332" transform="translate(660 203)">
      <path id="Path_463" data-name="Path 463" d="M32.592,7.464H18.248V4.891a2.5,2.5,0,1,0-1.465,0V7.465H2.438A2.5,2.5,0,0,0,0,10.01V30.139a2.5,2.5,0,0,0,2.438,2.545H3.483V45.542A4.453,4.453,0,0,0,7.932,49.99H27.665a4.453,4.453,0,0,0,4.448-4.448V32.682h.478a2.5,2.5,0,0,0,2.438-2.543V10.01a2.5,2.5,0,0,0-2.438-2.546ZM16.479,2.5a1.036,1.036,0,1,1,1.036,1.036A1.038,1.038,0,0,1,16.479,2.5ZM33.567,30.139a1.032,1.032,0,0,1-.974,1.08H21.67a1.665,1.665,0,0,0-1.187.492l-2.813,2.813a.216.216,0,0,1-.305,0L14.55,31.712a1.669,1.669,0,0,0-1.187-.492H9.241a.732.732,0,1,0,0,1.465h4.12a.218.218,0,0,1,.153.063l2.813,2.813a1.679,1.679,0,0,0,2.375,0l2.814-2.813a.218.218,0,0,1,.153-.063h8.979V45.543a2.987,2.987,0,0,1-2.984,2.984H7.933a2.988,2.988,0,0,1-2.984-2.984V32.682h1.4a.732.732,0,1,0,0-1.465H2.438a1.032,1.032,0,0,1-.974-1.079V10.01a1.032,1.032,0,0,1,.974-1.08H32.593a1.032,1.032,0,0,1,.974,1.08Zm0,0" fill="#fff"/>
      <path id="Path_464" data-name="Path 464" d="M64.03,126.868a2.578,2.578,0,1,0,2.578-2.578,2.581,2.581,0,0,0-2.578,2.578Zm3.692,0a1.113,1.113,0,1,1-1.113-1.113,1.114,1.114,0,0,1,1.113,1.113Zm0,0" transform="translate(-56.216 -109.121)" fill="#fff"/>
      <path id="Path_465" data-name="Path 465" d="M183.339,129.435a2.578,2.578,0,1,0-2.579-2.578,2.581,2.581,0,0,0,2.579,2.578Zm0-3.691a1.113,1.113,0,1,1-1.114,1.113,1.114,1.114,0,0,1,1.114-1.113Zm0,0" transform="translate(-158.699 -109.112)" fill="#fff"/>
      <path id="Path_466" data-name="Path 466" d="M50.317,93.89H49.309a.732.732,0,0,0,0,1.465h1.008a4.823,4.823,0,1,1,0,9.645H34.828a4.822,4.822,0,1,1,0-9.644H46.152a.732.732,0,0,0,0-1.465H34.828a6.286,6.286,0,1,0,0,12.573H50.316a6.287,6.287,0,1,0,0-12.574Zm0,0" transform="translate(-25.057 -82.431)" fill="#fff"/>
      <path id="Path_467" data-name="Path 467" d="M114.909,212.569a4.487,4.487,0,0,1-6.335,0,.732.732,0,0,0-1.035,1.035,5.95,5.95,0,0,0,8.405,0,.732.732,0,0,0-1.035-1.035Zm0,0" transform="translate(-94.227 -186.439)" fill="#fff"/>
      <path id="Path_468" data-name="Path 468" d="M66.21,314.012a.733.733,0,0,0,.732.732H84.477a.732.732,0,1,0,0-1.465H66.942a.731.731,0,0,0-.732.732Zm0,0" transform="translate(-58.13 -275.046)" fill="#fff"/>
      <path id="Path_469" data-name="Path 469" d="M84.477,339.14H66.942a.732.732,0,0,0,0,1.465H84.477a.732.732,0,0,0,0-1.465Zm0,0" transform="translate(-58.13 -297.75)" fill="#fff"/>
      <path id="Path_470" data-name="Path 470" d="M104.91,365H93.972a.732.732,0,0,0,0,1.465H104.91a.732.732,0,0,0,0-1.465Zm0,0" transform="translate(-81.861 -320.454)" fill="#fff"/>
    </g>
  </g>
</svg>
