<?xml version="1.0" encoding="UTF-8"?>
<svg width="62px" height="62px" viewBox="0 0 62 62" version="1.1" xmlns="http://www.w3.org/2000/svg" xmlns:xlink="http://www.w3.org/1999/xlink">
    <!-- Generator: Sketch 48.2 (47327) - http://www.bohemiancoding.com/sketch -->
    <title>Group 5</title>
    <desc>Created with Sketch.</desc>
    <defs>
        <linearGradient x1="2.68654337%" y1="2.68654337%" x2="99.1544032%" y2="99.1544032%" id="linearGradient-1">
            <stop stop-color="#48C6EF" offset="0%"></stop>
            <stop stop-color="#6F86D6" offset="100%"></stop>
        </linearGradient>
    </defs>
    <g id="Artboard" stroke="none" stroke-width="1" fill="none" fill-rule="evenodd" transform="translate(-654.000000, -717.000000)">
        <g id="Group-5" transform="translate(654.000000, 717.000000)">
            <circle id="Oval" fill="#EFEFEF" cx="31" cy="31" r="31"></circle>
            <g id="user-copy" fill="url(#linearGradient-1)">
                <path d="M31.530013,0.00458683528 C14.4102284,-0.287434597 0.295582382,13.4008866 0.00457382782,30.5743882 C-0.160672235,40.3196864 4.16351015,49.0715247 11.0526624,54.8899417 C11.5030676,54.5010689 11.9827199,54.1400776 12.519404,53.8407189 L21.7746459,48.7795033 C22.9854755,48.114751 23.738588,46.8424767 23.738588,45.449872 L23.738588,41.649191 C23.738588,41.649191 21.0259204,38.3870621 19.9920357,33.8585288 C19.1292465,33.3023673 18.5574659,32.3397238 18.5574659,31.2450103 L18.5574659,27.0774683 C18.5574659,26.1661853 18.9640005,25.3458839 19.5913506,24.7735806 L19.5913506,18.7541237 C19.5913506,18.7541237 18.3644351,9.38742622 30.9991784,9.38742622 C43.635384,9.38742622 42.4070061,18.7541237 42.4070061,18.7541237 L42.4070061,24.7735806 C43.0358186,25.3458839 43.4408908,26.1661853 43.4408908,27.0774683 L43.4408908,31.2450103 C43.4408908,32.6434848 42.5035215,33.8189078 41.2356601,34.2136503 C40.5278805,36.4206867 39.5056947,38.5250019 38.1574038,40.4400168 C37.8137505,40.9213386 37.5008066,41.3278207 37.2200346,41.649191 L37.2200346,45.5467233 C37.2200346,46.9862862 38.0257919,48.2981815 39.3053522,48.9409221 L49.2157289,53.9096888 C49.8094448,54.20758 50.3475913,54.5803109 50.8389424,55 C57.5219027,49.4105043 61.8343862,41.0534086 61.9952452,31.6412203 C62.2921032,14.4618489 48.65126,0.296608268 31.530013,0.00458683528 Z" id="Fill-3"></path>
            </g>
        </g>
    </g>
</svg>