<?xml version="1.0" encoding="UTF-8"?>
<svg width="21px" height="21px" viewBox="0 0 21 21" version="1.1" xmlns="http://www.w3.org/2000/svg" xmlns:xlink="http://www.w3.org/1999/xlink">
    <!-- Generator: Sketch 48.2 (47327) - http://www.bohemiancoding.com/sketch -->
    <title>menu-button</title>
    <desc>Created with Sketch.</desc>
    <defs></defs>
    <g id="Artboard" stroke="none" stroke-width="1" fill="none" fill-rule="evenodd" transform="translate(-659.000000, -668.000000)">
        <g id="menu-button" transform="translate(659.000000, 668.000000)">
            <g id="Group-3"></g>
            <g id="Group" fill="#8C8C8C">
                <path d="M10.4944831,0 C4.70773729,0 0,4.68796203 0,10.4502025 C0,13.3541392 1.22876695,16.1512152 3.37058898,18.1237089 C3.54401695,18.2832911 3.81408051,18.2729241 3.97433898,18.1005823 C4.13459746,17.9278861 4.12383051,17.6588734 3.95066949,17.4993797 C1.98263136,15.687 0.854415254,13.1177342 0.854415254,10.4502025 C0.854415254,5.15696203 5.17872458,0.850810127 10.4944831,0.850810127 C15.8097966,0.850810127 20.1344619,5.15696203 20.1344619,10.4502025 C20.1344619,15.7430886 15.8097966,20.0495949 10.4944831,20.0495949 C10.258411,20.0495949 10.0672754,20.2399241 10.0672754,20.475 C10.0672754,20.7096329 10.258411,20.9003165 10.4944831,20.9003165 C16.2811398,20.9003165 20.9888771,16.212443 20.9888771,10.4502025 C20.9888771,4.68796203 16.2811398,0 10.4944831,0 Z" id="Fill-1"></path>
                <path d="M5.43337756,6 L14.5666224,6 C14.8057429,6 15,5.77619246 15,5.5 C15,5.22422412 14.8057429,5 14.5666224,5 L5.43337756,5 C5.19425714,5 5,5.22422412 5,5.5 C5,5.77619246 5.19425714,6 5.43337756,6 Z" id="Fill-4"></path>
                <path d="M5.43337756,11 L14.5666224,11 C14.8057429,11 15,10.7757759 15,10.5 C15,10.2238075 14.8057429,10 14.5666224,10 L5.43337756,10 C5.19425714,10 5,10.2238075 5,10.5 C5,10.7757759 5.19425714,11 5.43337756,11 Z" id="Fill-5"></path>
                <path d="M15,14.5 C15,14.2237034 14.8057429,14 14.5666224,14 L5.43337756,14 C5.19425714,14 5,14.2237034 5,14.5 C5,14.7757759 5.19425714,15 5.43337756,15 L14.5666224,15 C14.8057429,15 15,14.7757759 15,14.5 Z" id="Fill-6"></path>
            </g>
        </g>
    </g>
</svg>