<?xml version="1.0" encoding="UTF-8"?>
<svg width="21px" height="21px" viewBox="0 0 21 21" version="1.1" xmlns="http://www.w3.org/2000/svg" xmlns:xlink="http://www.w3.org/1999/xlink">
    <!-- Generator: Sketch 50.2 (55047) - http://www.bohemiancoding.com/sketch -->
    <title>Group 2</title>
    <desc>Created with Sketch.</desc>
    <defs>
        <linearGradient x1="-10.5031199%" y1="-127.49454%" x2="100%" y2="232.284035%" id="linearGradient-1">
            <stop stop-color="#a733bb" offset="0%"></stop>
            <stop stop-color="#a733bb" offset="100%"></stop>
        </linearGradient>
    </defs>
    <g id="Page-1" stroke="none" stroke-width="1" fill="none" fill-rule="evenodd">
        <g id="Hi-there-Copy" transform="translate(-139.000000, -834.000000)">
            <g id="Group-2" transform="translate(139.000000, 834.000000)">
                <circle id="Oval-3" fill="url(#linearGradient-1)" cx="10.5" cy="10.5" r="10.5"></circle>
                <g id="menu" transform="translate(5.000000, 10.000000)" fill="#FFFFFF" fill-rule="nonzero">
                    <path d="M10.6364492,0 L0.363550781,0 C0.162773437,0 0,0.223841988 0,0.5 C0,0.776158012 0.162773437,1 0.363550781,1 L10.6364492,1 C10.8372441,1 11,0.776158012 11,0.5 C11,0.223866164 10.8372441,0 10.6364492,0 Z" id="Shape"></path>
                </g>
                <g id="menu" transform="translate(5.000000, 7.000000)" fill="#FFFFFF" fill-rule="nonzero">
                    <path d="M10.6364492,0 L0.363550781,0 C0.162773437,0 0,0.223841988 0,0.5 C0,0.776158012 0.162773437,1 0.363550781,1 L10.6364492,1 C10.8372441,1 11,0.776158012 11,0.5 C11,0.223866164 10.8372441,0 10.6364492,0 Z" id="Shape"></path>
                </g>
                <g id="menu" transform="translate(5.000000, 13.000000)" fill="#FFFFFF" fill-rule="nonzero">
                    <path d="M10.6364492,0 L0.363550781,0 C0.162773437,0 0,0.223841988 0,0.5 C0,0.776158012 0.162773437,1 0.363550781,1 L10.6364492,1 C10.8372441,1 11,0.776158012 11,0.5 C11,0.223866164 10.8372441,0 10.6364492,0 Z" id="Shape"></path>
                </g>
            </g>
        </g>
    </g>
</svg>