<?xml version="1.0" encoding="UTF-8"?>
<svg width="15px" height="23px" viewBox="0 0 15 23" version="1.1" xmlns="http://www.w3.org/2000/svg" xmlns:xlink="http://www.w3.org/1999/xlink">
    <!-- Generator: Sketch 48.2 (47327) - http://www.bohemiancoding.com/sketch -->
    <title>Group 36</title>
    <desc>Created with Sketch.</desc>
    <defs>
        <linearGradient x1="-10.5031199%" y1="-127.49454%" x2="100%" y2="232.284035%" id="linearGradient-1">
            <stop stop-color="#667EEA" offset="0%"></stop>
            <stop stop-color="#764BA2" offset="100%"></stop>
        </linearGradient>
    </defs>
    <g id="Artboard-2-Copy" stroke="none" stroke-width="1" fill="none" fill-rule="evenodd" transform="translate(-466.000000, -765.000000)" opacity="0.858355978">
        <g id="Group-36" transform="translate(466.000000, 765.000000)">
            <g id="microphone-black-shape" transform="translate(3.000000, 0.000000)" fill="#797979">
                <path d="M4.509,15.735102 C5.70913953,15.735102 6.73702326,15.310037 7.59202326,14.4607393 C8.44639535,13.6106094 8.874,12.5890387 8.874,11.3960271 L8.874,4.45288322 C8.874,3.25883141 8.44723256,2.23726069 7.59202326,1.38796299 C6.73702326,0.537833059 5.70913953,0.112768092 4.509,0.112768092 C3.30886047,0.112768092 2.28097674,0.537833059 1.42576744,1.38796299 C0.570767442,2.23726069 0.144,3.25883141 0.144,4.45288322 L0.144,11.3960271 C0.144,12.5890387 0.571395349,13.6106094 1.42576744,14.4607393 C2.28097674,15.310037 3.30886047,15.735102 4.509,15.735102 Z" id="Fill-1"></path>
            </g>
            <path d="M14.7526836,10.302672 C14.5878726,10.1427512 14.3920971,10.0625 14.1665557,10.0625 C13.9410143,10.0625 13.7460379,10.1427512 13.5804278,10.302672 C13.4158165,10.4623991 13.3331114,10.6523656 13.3331114,10.8712149 L13.3331114,12.4886447 C13.3331114,14.0469523 12.7627654,15.379626 11.6210745,16.4874414 C10.4801827,17.5944814 9.1059585,18.1486798 7.5,18.1486798 C5.8940415,18.1486798 4.52061636,17.5944814 3.3789255,16.4874414 C2.23723464,15.379626 1.66688863,14.0469523 1.66688863,12.4886447 L1.66688863,10.8712149 C1.66688863,10.6523656 1.58418347,10.4623991 1.41937245,10.302672 C1.25396212,10.1427512 1.0589857,10.0625 0.833444317,10.0625 C0.607902938,10.0625 0.411927656,10.1427512 0.247316411,10.302672 C0.0827051647,10.4623991 0,10.6523656 0,10.8712149 L0,12.4886447 C0,14.3497357 0.639866287,15.9694917 1.92039794,17.345974 C3.2009296,18.7234257 4.78271582,19.5131439 6.66655568,19.7145472 L6.66655568,21.382764 L3.33377727,21.382764 C3.10743681,21.382764 2.91226061,21.4630152 2.74764936,21.6227422 C2.58223903,21.7832446 2.50033295,21.9726297 2.50033295,22.1914789 C2.50033295,22.4101344 2.58223903,22.6002948 2.74764936,22.7600218 C2.91226061,22.9197488 3.10743681,23 3.33377727,23 L11.6662227,23 C11.8917641,23 12.0877394,22.9197488 12.2523506,22.7600218 C12.417761,22.6002948 12.499667,22.4101344 12.499667,22.1914789 C12.499667,21.9726297 12.417761,21.7832446 12.2523506,21.6227422 C12.0877394,21.4630152 11.8917641,21.382764 11.6662227,21.382764 L8.33344432,21.382764 L8.33344432,19.7145472 C10.2172842,19.5131439 11.7988706,18.7234257 13.0796021,17.345974 C14.3601337,15.9694917 15,14.3497357 15,12.4886447 L15,10.8712149 C15,10.6523656 14.9172948,10.4623991 14.7526836,10.302672 Z" id="Fill-3" fill="url(#linearGradient-1)"></path>
        </g>
    </g>
</svg>