<?xml version="1.0" encoding="UTF-8"?>
<svg width="76px" height="109px" viewBox="0 0 76 109" version="1.1" xmlns="http://www.w3.org/2000/svg" xmlns:xlink="http://www.w3.org/1999/xlink">
    <!-- Generator: Sketch 48.2 (47327) - http://www.bohemiancoding.com/sketch -->
    <title>Group 37</title>
    <desc>Created with Sketch.</desc>
    <defs>
        <linearGradient x1="59.6680996%" y1="239.929998%" x2="19.2103482%" y2="-155.079746%" id="linearGradient-1">
            <stop stop-color="#FC3832" offset="0%"></stop>
            <stop stop-color="#F2C314" offset="100%"></stop>
        </linearGradient>
        <linearGradient x1="117.58368%" y1="100%" x2="-186.381941%" y2="-188.613119%" id="linearGradient-2">
            <stop stop-color="#FC3832" offset="0%"></stop>
            <stop stop-color="#F2C314" offset="100%"></stop>
        </linearGradient>
        <linearGradient x1="2.68654337%" y1="2.68654337%" x2="99.1544032%" y2="99.1544032%" id="linearGradient-3">
            <stop stop-color="#48C6EF" offset="0%"></stop>
            <stop stop-color="#6F86D6" offset="100%"></stop>
        </linearGradient>
    </defs>
    <g id="Page-1" stroke="none" stroke-width="1" fill="none" fill-rule="evenodd">
        <g id="Group-37">
            <g id="Group-36-Copy">
                <g id="microphone-black-shape" transform="translate(16.000000, 0.000000)" fill="url(#linearGradient-2)">
                    <path d="M21.543,75.628 C27.277,75.628 32.188,73.585 36.273,69.503 C40.355,65.417 42.398,60.507 42.398,54.773 L42.398,21.402 C42.398,15.663 40.359,10.753 36.273,6.671 C32.188,2.585 27.277,0.542 21.543,0.542 C15.809,0.542 10.898,2.585 6.812,6.671 C2.727,10.753 0.688,15.663 0.688,21.402 L0.688,54.773 C0.688,60.507 2.73,65.417 6.812,69.503 C10.898,73.585 15.809,75.628 21.543,75.628 Z" id="Fill-1"></path>
                </g>
                <path d="M73.848,43.239 C73.023,42.414 72.043,42 70.914,42 C69.785,42 68.809,42.414 67.98,43.239 C67.156,44.063 66.742,45.043 66.742,46.172 L66.742,54.516 C66.742,62.555 63.887,69.43 58.172,75.145 C52.461,80.856 45.582,83.715 37.543,83.715 C29.504,83.715 22.629,80.856 16.914,75.145 C11.199,69.43 8.344,62.555 8.344,54.516 L8.344,46.172 C8.344,45.043 7.93,44.063 7.105,43.239 C6.277,42.414 5.301,42 4.172,42 C3.043,42 2.062,42.414 1.238,43.239 C0.414,44.063 0,45.043 0,46.172 L0,54.516 C0,64.117 3.203,72.473 9.613,79.574 C16.023,86.68 23.941,90.754 33.371,91.793 L33.371,100.399 L16.688,100.399 C15.555,100.399 14.578,100.813 13.754,101.637 C12.926,102.465 12.516,103.442 12.516,104.571 C12.516,105.699 12.926,106.68 13.754,107.504 C14.578,108.328 15.555,108.742 16.688,108.742 L58.398,108.742 C59.527,108.742 60.508,108.328 61.332,107.504 C62.16,106.68 62.57,105.699 62.57,104.571 C62.57,103.442 62.16,102.465 61.332,101.637 C60.508,100.813 59.527,100.399 58.398,100.399 L41.715,100.399 L41.715,91.793 C51.145,90.754 59.062,86.68 65.473,79.574 C71.883,72.473 75.086,64.117 75.086,54.516 L75.086,46.172 C75.086,45.043 74.672,44.063 73.848,43.239 Z" id="Fill-3" fill="url(#linearGradient-3)"></path>
            </g>
        </g>
    </g>
</svg>