<svg xmlns="http://www.w3.org/2000/svg" viewBox="0 0 239.6 182.7"><path fill="#fff" d="M235.9 9.2c-13.9-3.5-28-6.2-42.3-8.1-32.8-4.2-66.1 5.3-73.8 7.7-7.7-2.4-41-11.9-73.8-7.7C31.8 3 17.7 5.7 3.8 9.2 1.5 9.8 0 11.7 0 14v146c0 2.8 2.2 5 5 5 .4 0 .7 0 1.1-.1.2 0 21.5-4.7 41.7-7.9 29.1-4.6 70.2 7.7 70.6 7.8.2.1.4.1.6.1h1.6c.2 0 .4-.1.6-.1.4-.1 41.5-12.5 70.6-7.8 20.2 3.2 41.5 7.9 41.7 7.9 2.7.6 5.4-1.1 6-3.8.1-.4.1-.7.1-1.1V14c0-2.3-1.5-4.2-3.7-4.8zM46.2 147.1c-13.9 2.2-28.3 5.1-36.2 6.8V18c6.8-1.6 22-5 37.3-7 28.1-3.6 57.7 3.9 67.5 6.7v135.7c-13.2-3.4-44.1-10.2-68.6-6.3zm183.4 6.8c-7.9-1.6-22.3-4.5-36.2-6.8-5.4-.8-10.8-1.2-16.2-1.2-20.6 0-42 4.8-52.4 7.5V17.7c9.8-2.9 39.3-10.4 67.5-6.7 15.3 2 30.5 5.4 37.3 7v135.9z"/><path fill="#fff" d="M100.7 169.2c-15-3-36.6-6-54.5-3.1-12.3 2-24.9 4.4-33.3 6.2-2.7.5-4.5 3.2-3.9 5.9.5 2.3 2.5 4 4.9 4 .3 0 .7 0 1-.1 8.3-1.7 20.8-4.1 32.9-6.1 16.5-2.6 36.8.2 51 3.1 2.7.5 5.3-1.3 5.8-4 .4-2.7-1.3-5.3-3.9-5.9zm128.5 3.6c-7.4-1.5-21.8-4.4-35.8-6.7-18.5-3-40.8.3-56.2 3.5-2.7.6-4.4 3.2-3.8 5.9.6 2.7 3.2 4.4 5.9 3.9 14.6-3.1 35.6-6.1 52.6-3.4 13.8 2.2 28.1 5.1 35.4 6.6 2.7.6 5.4-1.1 5.9-3.8.5-2.8-1.2-5.4-4-6 .1 0 .1 0 0 0z"/></svg>