<svg xmlns="http://www.w3.org/2000/svg" viewBox="0 0 186.1 218.1"><path fill="#fff" d="M13.9 207.4c-1.7 0-3-1.3-3-3V69.7c0-.8.3-1.6.9-2.1L78.5.9c.9-.9 2.1-1.1 3.3-.7 1.1.5 1.9 1.6 1.9 2.8v108.4c0 1.7-1.3 3-3 3s-3-1.3-3-3V10.2L16.9 71v133.4c0 1.7-1.4 3-3 3zm158.5 0c-1.7 0-3-1.3-3-3V6h-60.7v105.4c0 1.7-1.3 3-3 3s-3-1.3-3-3V3c0-1.7 1.3-3 3-3h66.7c1.7 0 3 1.3 3 3v201.4c0 1.7-1.4 3-3 3z"/><path fill="#fff" d="M127.1 207.4c-1.7 0-3-1.3-3-3v-90H63.3v90c0 1.7-1.3 3-3 3s-3-1.3-3-3v-93c0-1.7 1.3-3 3-3H127c1.7 0 3 1.3 3 3v93c.1 1.7-1.3 3-2.9 3zm56 10.7H3.1c-1.7 0-3-1.3-3-3s1.3-3 3-3h180c1.7 0 3 1.3 3 3s-1.3 3-3 3zm-49.7-174h-13.1c-1.7 0-3-1.3-3-3V28c0-1.7 1.3-3 3-3h13.1c1.7 0 3 1.3 3 3v13.1c0 1.7-1.3 3-3 3zm-10.1-6h7.1V31h-7.1v7.1zm10.1 33.7h-13.1c-1.7 0-3-1.3-3-3V55.7c0-1.7 1.3-3 3-3h13.1c1.7 0 3 1.3 3 3v13.1c0 1.7-1.3 3-3 3zm-10.1-6h7.1v-7.1h-7.1v7.1zm10.1 33.7h-13.1c-1.7 0-3-1.3-3-3V83.4c0-1.7 1.3-3 3-3h13.1c1.7 0 3 1.3 3 3v13.1c0 1.7-1.3 3-3 3zm-10.1-6h7.1v-7.1h-7.1v7.1zm34-49.4h-13.1c-1.7 0-3-1.3-3-3V28c0-1.7 1.3-3 3-3h13.1c1.7 0 3 1.3 3 3v13.1c0 1.7-1.4 3-3 3zm-10.1-6h7.1V31h-7.1v7.1zm10.1 33.7h-13.1c-1.7 0-3-1.3-3-3V55.7c0-1.7 1.3-3 3-3h13.1c1.7 0 3 1.3 3 3v13.1c0 1.7-1.4 3-3 3zm-10.1-6h7.1v-7.1h-7.1v7.1zm10.1 33.7h-13.1c-1.7 0-3-1.3-3-3V83.4c0-1.7 1.3-3 3-3h13.1c1.7 0 3 1.3 3 3v13.1c0 1.7-1.4 3-3 3zm-10.1-6h7.1v-7.1h-7.1v7.1z"/><path fill="#fff" d="M89.3 151.4H76.2c-1.7 0-3-1.3-3-3v-13.1c0-1.7 1.3-3 3-3h13.1c1.7 0 3 1.3 3 3v13.1c0 1.7-1.3 3-3 3zm-10.1-6h7.1v-7.1h-7.1v7.1zm10.1 33.7H76.2c-1.7 0-3-1.3-3-3V163c0-1.7 1.3-3 3-3h13.1c1.7 0 3 1.3 3 3v13.1c0 1.6-1.3 3-3 3zm-10.1-6h7.1V166h-7.1v7.1zm34-21.7h-13.1c-1.7 0-3-1.3-3-3v-13.1c0-1.7 1.3-3 3-3h13.1c1.7 0 3 1.3 3 3v13.1c0 1.7-1.4 3-3 3zm-10.1-6h7.1v-7.1h-7.1v7.1zm10.1 33.7h-13.1c-1.7 0-3-1.3-3-3V163c0-1.7 1.3-3 3-3h13.1c1.7 0 3 1.3 3 3v13.1c0 1.6-1.4 3-3 3zm-10.1-6h7.1V166h-7.1v7.1zm-61.2-72.4H28.8c-1.7 0-3-1.3-3-3V84.6c0-1.7 1.3-3 3-3h13.1c1.7 0 3 1.3 3 3v13.1c0 1.7-1.4 3-3 3zm-10.1-6h7.1v-7.1h-7.1v7.1zm33.9 6H52.6c-1.7 0-3-1.3-3-3V84.6c0-1.7 1.3-3 3-3h13.1c1.7 0 3 1.3 3 3v13.1c0 1.7-1.3 3-3 3zm-10.1-6h7.1v-7.1h-7.1v7.1zm10.1-22.6H52.6c-1.7 0-3-1.3-3-3V56c0-1.7 1.3-3 3-3h13.1c1.7 0 3 1.3 3 3v13.1c0 1.7-1.3 3-3 3zm-10.1-6h7.1V59h-7.1v7.1zm-13.7 65.6H28.8c-1.7 0-3-1.3-3-3v-13.1c0-1.7 1.3-3 3-3h13.1c1.7 0 3 1.3 3 3v13.1c0 1.7-1.4 3-3 3zm-10.1-6h7.1v-7.1h-7.1v7.1z"/></svg>