<svg xmlns="http://www.w3.org/2000/svg" viewBox="0 0 251.7 176"><path fill="#fff" d="M157.1 65.5v-7.8c0-4.5-3.6-8.1-8.1-8.1h-41.4c-4.5 0-8.1 3.6-8.1 8.1v7.8c-8.9.4-15.9 7.7-15.9 16.6v40.8c0 9.2 7.4 16.6 16.6 16.6h56.1c9.2 0 16.6-7.4 16.6-16.6V82.1c.1-8.9-6.9-16.2-15.8-16.6zm-10-5.9v5.8h-37.5v-5.8h37.5zm-46.8 15.9h56.1c3.6 0 6.6 3 6.6 6.6v5.1c-2.5 2-11.4 7.1-34.6 7.1s-32.1-5.2-34.6-7.1v-5.1c-.1-3.7 2.8-6.6 6.5-6.6zm56.1 54h-56.1c-3.6 0-6.6-3-6.6-6.6V98.7c6.5 2.9 17.2 5.6 34.6 5.6s28.2-2.7 34.6-5.6v24.2c.1 3.6-2.9 6.6-6.5 6.6z"/><path fill="#fff" d="M241.7 92.1c4.1-21-.2-41.7-12-57.2-18.1-23.7-50.3-31.9-81-20.7-26.3-21.8-65.3-18.1-87.1 8.3-7.4 9-12.2 20-13.7 31.6-33.3 7.7-54 40.9-46.4 74.2 6.1 26.6 29 46 56.3 47.8h.9c2.8 0 5-2.2 5-5s-2.2-5-5-5h-.3c-28.6-1.9-50.2-26.6-48.3-55.2 1.6-24 19.5-43.8 43.3-47.7 2.3-.4 4-2.3 4.2-4.6C59.4 30 84.1 8.4 112.7 10.2c11.8.8 23 5.5 31.7 13.5 1.4 1.3 3.5 1.7 5.3.9 27.3-11 56.3-4.4 72.2 16.4 10.6 14 14.1 32.2 9.7 51.3-.3 1.5 0 3.1 1 4.3 14.1 17 11.7 42.2-5.3 56.2-7.2 6-16.2 9.2-25.5 9.2-2.8 0-5 2.2-5 5s2.2 5 5 5c27.6 0 50-22.3 50-49.9-.1-10.8-3.6-21.3-10.1-30z"/><path fill="#fff" d="M128.2 109.5c-3 0-5.5 2.4-5.5 5.5s2.4 5.5 5.5 5.5c3 0 5.5-2.4 5.5-5.5s-2.5-5.5-5.5-5.5z"/></svg>