<svg xmlns="http://www.w3.org/2000/svg" viewBox="0 0 604.94 593.37"><g id="Layer_2" data-name="Layer 2"><g id="Layer_1-2" data-name="Layer 1"><path d="M315.1,549.42V214.2H289.9V549.42l-18.24-23.87-20,15.31,33.2,43.42a21.72,21.72,0,0,0,35.34,0l33.2-43.44-20-15.31Z" fill="#fff"/><path d="M504.8,448.53l-43.45-33.21-15.3,20,23.87,18.25H378.1A12.62,12.62,0,0,1,365.5,441V340.17a12.6,12.6,0,0,1,12.6-12.6h25.2v-25.2H378.1a37.85,37.85,0,0,0-37.8,37.8V441a37.86,37.86,0,0,0,37.8,37.8h91.8L446,497l15.3,20,43.45-33.21a21.73,21.73,0,0,0,0-35.32Z" fill="#fff"/><rect x="428.5" y="302.4" width="25.2" height="25.2" fill="#fff"/><path d="M264.7,441V340.2a37.83,37.83,0,0,0-37.8-37.8H201.7v25.2h25.2a12.6,12.6,0,0,1,12.6,12.6h0V441a12.6,12.6,0,0,1-12.6,12.6H138.12L162,435.34l-15.3-20-43.42,33.2a21.74,21.74,0,0,0,0,35.34l43.44,33.19,15.3-20-23.86-18.23H226.9A37.85,37.85,0,0,0,264.7,441Z" fill="#fff"/><rect x="151.3" y="302.4" width="25.2" height="25.2" fill="#fff"/><path d="M541.83,230.5c0-1.25.07-2.48.07-3.7A113.54,113.54,0,0,0,433,113.48,163.58,163.58,0,0,0,277.3,0C191,0,120.11,67,113.93,151.78A126,126,0,0,0,126.1,403.2h88.2V378H126.1A100.8,100.8,0,0,1,114,177.12a163.18,163.18,0,0,0,8.23,39.69l23.85-8.15a138.56,138.56,0,0,1-7.42-44.86c0-76.43,62.18-138.6,138.6-138.6A138.38,138.38,0,0,1,407,115.43a112.94,112.94,0,0,0-56.26,28.78l17.28,18.36a87.81,87.81,0,0,1,52-23.57l6.19-.29c.75,0,1.5-.11,2.26-.11a88.3,88.3,0,0,1,88.2,88.2,84.25,84.25,0,0,1-.91,11.87l-1.66,12.27,12.23,1.88A63,63,0,0,1,516.71,378h-126v25.2h126a88.17,88.17,0,0,0,25.13-172.7Z" fill="#fff"/></g></g></svg>