<svg xmlns="http://www.w3.org/2000/svg" viewBox="0 0 226.3 196.9"><path fill="#fff" d="M43.9 161.3h27.5c2.8 0 5-2.2 5-5s-2.2-5-5-5H43.9c-12.4 0-22.5-10.5-22.5-23.3V33.3C21.4 20.5 31.9 10 44.8 10H182c12.9 0 23.3 10.5 23.3 23.3v94.6c0 12.9-10.1 23.3-22.5 23.3h-27.5c-2.8 0-5 2.2-5 5s2.2 5 5 5h27.5c17.9 0 32.5-15 32.5-33.3V33.3C215.3 14.9 200.4 0 182 0H44.8C26.3 0 11.4 14.9 11.4 33.3v94.6c0 18.4 14.6 33.4 32.5 33.4zm177.4 25.6h-15.8c-3.5-4.6-10.1-5.4-14.7-1.9-.7.5-1.3 1.2-1.9 1.9h-4.4c-3.5-4.6-10.1-5.4-14.7-1.9-.7.5-1.3 1.2-1.9 1.9h-4.4c-3.5-4.6-10.1-5.4-14.7-1.9-.7.5-1.3 1.2-1.9 1.9h-4.4c-3.5-4.6-10.1-5.4-14.7-1.9-.7.5-1.3 1.2-1.9 1.9h-4.4c-3.5-4.6-10.1-5.4-14.7-1.9-.7.5-1.3 1.2-1.9 1.9h-4.4c-3.5-4.6-10.1-5.4-14.7-1.9-.7.5-1.3 1.2-1.9 1.9h-4.4c-3.5-4.6-10.1-5.4-14.7-1.9-.7.5-1.3 1.2-1.9 1.9h-4.4c-3.5-4.6-10.1-5.4-14.7-1.9-.7.5-1.3 1.2-1.9 1.9h-4.4c-3.5-4.6-10.1-5.4-14.7-1.9-.7.5-1.3 1.2-1.9 1.9H5.3c-2.8 0-5 2.2-5 5s2.2 5 5 5h216c2.8 0 5-2.2 5-5s-2.2-5-5-5z"/><path fill="#fff" d="M113.4 81.2c-7.1 0-12.8 5.7-12.8 12.8 0 7.1 5.7 12.8 12.8 12.8 7.1 0 12.8-5.7 12.8-12.8 0-7-5.7-12.7-12.8-12.8zm0 17.7c-2.7 0-4.8-2.2-4.8-4.8s2.2-4.8 4.8-4.8 4.8 2.2 4.8 4.8c0 2.6-2.1 4.8-4.8 4.8z"/><path fill="#fff" d="M113.5 30.6c-12.1 0-21.8 9.8-21.8 21.8v10.9h-4.8c-3.8 0-6.9 3.1-6.9 6.9v46c0 3.8 3.1 6.9 6.9 6.9H140c3.8 0 6.9-3.1 6.9-6.9v-46c0-3.8-3.1-6.9-6.9-6.9h-4.7V52.4c0-12-9.8-21.8-21.8-21.8zM99.6 52.4c-.1-7.6 6.1-13.9 13.7-14 7.6-.1 13.9 6.1 14 13.7v11.1H99.6V52.4zm39.3 18.9V115h-51V71.3h51z"/></svg>