<svg xmlns="http://www.w3.org/2000/svg" viewBox="0 0 165.7 227.5"><path fill="#fff" d="M49.8 196.9H26.3c-2.2 0-4 1.8-4 4s1.8 4 4 4h23.5c2.2 0 4-1.8 4-4s-1.8-4-4-4zm0-13.5H26.3c-2.2 0-4 1.8-4 4s1.8 4 4 4h23.5c2.2 0 4-1.8 4-4s-1.8-4-4-4zm0-13.5H26.3c-2.2 0-4 1.8-4 4s1.8 4 4 4h23.5c2.2 0 4-1.8 4-4s-1.8-4-4-4zm0-13.5H26.3c-2.2 0-4 1.8-4 4s1.8 4 4 4h23.5c2.2 0 4-1.8 4-4s-1.8-4-4-4zm0-13.5H26.3c-2.2 0-4 1.8-4 4s1.8 4 4 4h23.5c2.2 0 4-1.8 4-4s-1.8-4-4-4z"/><path fill="#fff" d="M58.5 118.5H17.6c-9.7 0-17.6 7.9-17.6 17.6v73.7c0 9.7 7.9 17.6 17.6 17.6h40.9c9.7 0 17.6-7.9 17.6-17.6v-73.7c.1-9.7-7.8-17.6-17.6-17.6zm7.7 91.3c0 4.2-3.4 7.6-7.6 7.6h-41c-4.2 0-7.6-3.4-7.6-7.6v-73.7c0-4.2 3.4-7.6 7.6-7.6h40.9c4.2 0 7.6 3.4 7.6 7.6l.1 73.7zM49.8 80.4H26.3c-2.2 0-4 1.8-4 4s1.8 4 4 4h23.5c2.2 0 4-1.8 4-4s-1.8-4-4-4zm0-13.5H26.3c-2.2 0-4 1.8-4 4s1.8 4 4 4h23.5c2.2 0 4-1.8 4-4s-1.8-4-4-4zm0-13.5H26.3c-2.2 0-4 1.8-4 4s1.8 4 4 4h23.5c2.2 0 4-1.8 4-4s-1.8-4-4-4z"/><path fill="#fff" d="M58.5 0H17.6C7.9 0 0 7.9 0 17.6v73.7c0 9.7 7.9 17.6 17.6 17.6h40.9c9.7 0 17.6-7.9 17.6-17.6V17.6C76.2 7.9 68.3 0 58.5 0zm7.7 91.3c0 4.2-3.4 7.6-7.6 7.6h-41c-4.2 0-7.6-3.4-7.6-7.6V17.6c0-4.2 3.4-7.6 7.6-7.6h40.9c4.2 0 7.6 3.4 7.6 7.6l.1 73.7zm73.1 105.6h-23.5c-2.2 0-4 1.8-4 4s1.8 4 4 4h23.5c2.2 0 4-1.8 4-4s-1.8-4-4-4zm0-13.5h-23.5c-2.2 0-4 1.8-4 4s1.8 4 4 4h23.5c2.2 0 4-1.8 4-4s-1.8-4-4-4zm0-13.5h-23.5c-2.2 0-4 1.8-4 4s1.8 4 4 4h23.5c2.2 0 4-1.8 4-4s-1.8-4-4-4z"/><path fill="#fff" d="M148 118.5h-40.9c-9.7 0-17.6 7.9-17.6 17.6v73.7c0 9.7 7.9 17.6 17.6 17.6H148c9.7 0 17.6-7.9 17.6-17.6v-73.7c.1-9.7-7.8-17.6-17.6-17.6zm7.7 91.3c0 4.2-3.4 7.6-7.6 7.6h-40.9c-4.2 0-7.6-3.4-7.6-7.6v-73.7c0-4.2 3.4-7.6 7.6-7.6H148c4.2 0 7.6 3.4 7.6 7.6v73.7zM139.3 80.4h-23.5c-2.2 0-4 1.8-4 4s1.8 4 4 4h23.5c2.2 0 4-1.8 4-4s-1.8-4-4-4zm0-13.5h-23.5c-2.2 0-4 1.8-4 4s1.8 4 4 4h23.5c2.2 0 4-1.8 4-4s-1.8-4-4-4zm0-13.5h-23.5c-2.2 0-4 1.8-4 4s1.8 4 4 4h23.5c2.2 0 4-1.8 4-4s-1.8-4-4-4zm0-13.5h-23.5c-2.2 0-4 1.8-4 4s1.8 4 4 4h23.5c2.2 0 4-1.8 4-4s-1.8-4-4-4zm0-13.5h-23.5c-2.2 0-4 1.8-4 4s1.8 4 4 4h23.5c2.2 0 4-1.8 4-4s-1.8-4-4-4z"/><path fill="#fff" d="M148 0h-40.9c-9.7 0-17.6 7.9-17.6 17.6v73.7c0 9.7 7.9 17.6 17.6 17.6H148c9.7 0 17.6-7.9 17.6-17.6V17.6C165.7 7.9 157.8 0 148 0zm7.7 91.3c0 4.2-3.4 7.6-7.6 7.6h-40.9c-4.2 0-7.6-3.4-7.6-7.6V17.6c0-4.2 3.4-7.6 7.6-7.6H148c4.2 0 7.6 3.4 7.6 7.6v73.7z"/></svg>