<svg xmlns="http://www.w3.org/2000/svg" viewBox="0 0 226 221.9"><path fill="#fff" d="M144.3 181c5.6-2.7 8.9-8.6 8.5-14.7l-2.3-38.2c-.1-1.4.2-2.8.9-4 4.7-9.2 6.8-19.5 6.1-29.9-1-17.3-9.1-34.4-24-51-1.9-2-5-2.2-7.1-.4-1.1.9-1.6 2.3-1.6 3.7v119.6c0 5.1 2.2 10 6.2 13.2 2.2 1.8 5 2.9 7.9 2.9 1.7.1 3.6-.3 5.4-1.2zm-9.7-14.7v-105c9.3 13.8 19.3 36.2 7.8 58.3-1.5 2.8-2.2 6-2 9.2l2.3 38.2c.2 2.1-.9 4.1-2.8 5.1-1 .6-2.2.4-3-.4-1.5-1.4-2.3-3.4-2.3-5.4zM108.3 42.1c-2.8 0-5 2.2-5 5v42.5c-.2 2.4-1.7 4.4-3.9 5.3-1.9.8-3.2 2.7-3.1 4.7l1.3 68.7c.1 1.9-.7 3.7-2.2 4.8-1 .7-1.9.9-3.6.1-2.4-1.4-3.8-4-3.7-6.7l2.6-66.7v-.7c0-.1 0-.3-.1-.4 0-.2-.1-.3-.1-.5s-.1-.3-.1-.5-.1-.3-.2-.4-.1-.3-.2-.4c-.1-.1-.2-.3-.3-.4-.1-.1-.2-.2-.3-.4-.1-.1-.2-.2-.4-.3-.1-.1-.2-.2-.4-.3s-.3-.2-.4-.2c-.2-.2-.4-.3-.6-.3 0 0-.1 0-.1-.1-2.2-.8-3.8-2.9-3.9-5.3V47.1c0-2.8-2.2-5-5-5s-5 2.2-5 5v42.5c.1 5.1 2.7 9.9 7 12.8L78.1 166c-.3 6.6 3.2 12.8 9 16 2 1.1 4.3 1.7 6.6 1.7 2.7 0 5.3-.9 7.4-2.4 4.2-3 6.7-8 6.5-13.2l-1.3-65.6c4.3-2.9 6.9-7.7 7-12.9V47.1c0-2.7-2.2-5-5-5z"/><path fill="#fff" d="M93.3 88.4c2.8 0 5-2.2 5-5V47c0-2.8-2.2-5-5-5s-5 2.2-5 5v36.5c0 2.7 2.2 4.9 5 4.9z"/><path fill="#fff" d="M194.4 34.6C173.7 13 145.1.5 115.2 0H113C50.6 0 0 50.6 0 113.1c0 50.5 33.6 94.9 82.2 108.7 2.7.8 5.4-.8 6.2-3.5.8-2.7-.8-5.4-3.5-6.2C30.2 196.6-1.6 139.6 14 85S86.4-1.5 141.1 14s86.4 72.5 70.9 127.2c-9.7 34.1-36.3 60.9-70.4 70.8-2.7.7-4.3 3.4-3.6 6.1.7 2.7 3.4 4.3 6.1 3.6.1 0 .2-.1.3-.1 22.9-6.7 43.1-20.4 57.8-39.2 34.5-44.4 31.2-107.3-7.8-147.8z"/></svg>