<svg xmlns="http://www.w3.org/2000/svg" viewBox="0 0 165.6 201.3"><path fill="#fff" d="M27.7 80.9h80.8c2.8 0 5-2.2 5-5s-2.2-5-5-5H27.7c-2.8 0-5 2.2-5 5s2.2 5 5 5zm0 24.1h80.8c2.8 0 5-2.2 5-5s-2.2-5-5-5H27.7c-2.8 0-5 2.2-5 5s2.2 5 5 5zm0 24.1h80.8c2.8 0 5-2.2 5-5s-2.2-5-5-5H27.7c-2.8 0-5 2.2-5 5s2.2 5 5 5z"/><path fill="#fff" d="M131.1 28.3H5c-2.8 0-5 2.2-5 5v163c0 2.8 2.2 5 5 5h126.1c2.8 0 5-2.2 5-5v-163c0-2.7-2.2-5-5-5zm-5 163H10v-153h116.1v153z"/><path fill="#fff" d="M160.6 0H34.4c-2.8 0-5 2.2-5 5v11.3c0 2.8 2.2 5 5 5s5-2.2 5-5V10h116.1v153h-4.9c-2.8 0-5 2.2-5 5s2.2 5 5 5h9.9c2.8 0 5-2.2 5-5V5c.1-2.8-2.2-5-4.9-5z"/></svg>