<svg xmlns="http://www.w3.org/2000/svg" viewBox="0 0 245.2 263"><path fill="#fff" d="M15.4 100.7c-2.8 0-5 2.2-5 5v25.7c0 2.8 2.2 5 5 5h2v104.5c0 2.8 2.2 5 5 5s5-2.2 5-5V136.3h23v104.5c0 2.8 2.2 5 5 5s5-2.2 5-5V136.3h1c2.8 0 5-2.2 5-5v-25.7c0-2.8-2.2-5-5-5s-5 2.2-5 5v20.7h-36v-20.7c0-2.7-2.3-4.9-5-4.9zm170 0c-2.8 0-5 2.2-5 5v25.7c0 2.8 2.2 5 5 5h2v104.5c0 2.8 2.2 5 5 5s5-2.2 5-5V136.3h23v104.5c0 2.8 2.2 5 5 5s5-2.2 5-5V136.3h1c2.8 0 5-2.2 5-5v-25.7c0-2.8-2.2-5-5-5s-5 2.2-5 5v20.7h-36v-20.7c0-2.7-2.3-4.9-5-4.9zm-84 0c-2.8 0-5 2.2-5 5v25.7c0 2.8 2.2 5 5 5h2v104.5c0 2.8 2.2 5 5 5s5-2.2 5-5V136.3h23v104.5c0 2.8 2.2 5 5 5s5-2.2 5-5V136.3h1c2.8 0 5-2.2 5-5v-25.7c0-2.8-2.2-5-5-5s-5 2.2-5 5v20.7h-36v-20.7c0-2.7-2.3-4.9-5-4.9zM240.2 253H5c-2.8 0-5 2.2-5 5s2.2 5 5 5h235.2c2.8 0 5-2.2 5-5 0-2.7-2.2-5-5-5zm2.5-184.3L125.1.7c-1.5-.9-3.5-.9-5 0L2.5 68.7C1 69.6 0 71.2 0 73v12.7c0 2.8 2.2 5 5 5h235.2c2.8 0 5-2.2 5-5V73c0-1.8-.9-3.4-2.5-4.3zm-7.5 12H10v-4.8l112.6-65.1 112.6 65.1v4.8z"/><path fill="#fff" d="M102 48.4c0 11.4 9.2 20.6 20.6 20.6s20.6-9.2 20.6-20.6-9.2-20.6-20.6-20.6c-11.4 0-20.6 9.2-20.6 20.6zm31.2 0c0 5.8-4.7 10.6-10.6 10.6-5.8 0-10.6-4.7-10.6-10.6 0-5.8 4.7-10.6 10.6-10.6 5.9 0 10.6 4.7 10.6 10.6z"/></svg>