<svg xmlns="http://www.w3.org/2000/svg" viewBox="0 0 178 262.4"><path fill="#fff" d="M173 252.4H5c-2.8 0-5 2.2-5 5s2.2 5 5 5h168c2.8 0 5-2.2 5-5s-2.2-5-5-5zm2.5-99.4l-16-9.3V84c0-2.8-2.2-5-5-5h-4.6c-2.2-29.9-25.9-53.7-55.7-56.2V5c0-2.8-2.2-5-5-5s-5 2.2-5 5v17.8C54.3 25.3 30.7 49.1 28.4 79H26c-2.8 0-5 2.2-5 5v58.3L2.5 153c-1.5.9-2.5 2.6-2.5 4.4v9c0 2.8 2.2 5 5 5h7.4V239c0 2.8 2.2 5 5 5s5-2.2 5-5v-67.6H36V239c0 2.8 2.2 5 5 5s5-2.2 5-5v-67.6h25.8V239c0 2.8 2.2 5 5 5s5-2.2 5-5v-67.6h13.6V239c0 2.8 2.2 5 5 5s5-2.2 5-5v-67.6h28.5V239c0 2.8 2.2 5 5 5s5-2.2 5-5v-67.6h13.6V239c0 2.8 2.2 5 5 5s5-2.2 5-5v-67.6h5.6c2.8 0 5-2.2 5-5v-9c-.1-1.8-1-3.5-2.6-4.4zM89.2 32.6c26.2 0 48.1 19.9 50.7 45.9H38.5C41.1 52.4 63 32.6 89.2 32.6zM31 89h118.5v49l-58-33.5c-1.5-.9-3.5-.9-5 0L31 136.6V89zm137 72.4H10v-1.2l79-45.7 79 45.7v1.2z"/><path fill="#fff" d="M83.7 140.5c0 3 2.4 5.5 5.5 5.5s5.5-2.4 5.5-5.5c0-3-2.4-5.5-5.5-5.5-3 .1-5.5 2.5-5.5 5.5z"/></svg>