<svg xmlns="http://www.w3.org/2000/svg" viewBox="0 0 227.1 226.2"><path fill="#fff" d="M225 217c-.8-.5-19.1-12.9-48.2-21.4-12.3-3.6-25-6-37.8-7-8.3-.7-16.7-.8-25-.3L77.6 91.9l57.2-21.6c2.6-1 3.9-3.9 2.9-6.4C124.6 29 86.6 10.2 50.8 20.8L44.2 3.2C43.2.6 40.3-.7 37.7.3s-3.9 3.8-2.9 6.4l6.6 17.6C7.5 39.9-8.6 79.1 4.6 114.1c1 2.6 3.9 3.9 6.4 2.9l57.2-21.6 35.4 93.9c-26 3.2-50.9 12.4-74.3 27.6-2.3 1.5-3 4.6-1.6 6.9 1.5 2.3 4.6 3 6.9 1.6 0 0 .1 0 .1-.1 31.9-20.7 66.7-29.7 103.4-26.7 12.1 1 24.2 3.2 35.9 6.7 27.3 7.9 45 19.8 45.3 20 2.3 1.5 5.4.9 6.9-1.4 1.6-2.3 1-5.3-1.2-6.9zM71.1 27.8c23.7 0 45.2 13.6 55.4 35L99.1 73.1c-10.4-25.8-24-38.6-34.5-44.9 2.2-.2 4.3-.3 6.5-.4zm-55.6 36c4.5-10 11.6-18.6 20.6-24.9-2.3 7.2-3.9 17-2.6 29.7.3 2.5 2.4 4.5 5 4.5h.5c2.7-.3 4.7-2.7 4.5-5.5-1.4-13.3.9-22.6 3.1-28.1.9-2.4 2.1-4.7 3.5-6.8 6.8 1.8 25.9 9.8 39.8 44.1L12.5 106c-4.2-14.1-3.1-29 3-42.2z"/></svg>