<svg xmlns="http://www.w3.org/2000/svg" viewBox="0 0 605.41 504"><g id="Layer_2" data-name="Layer 2"><g id="Layer_1-2" data-name="Layer 1"><path d="M542.38,230.51c0-1.25.07-2.49.07-3.71A113.54,113.54,0,0,0,433.58,113.48,163.59,163.59,0,0,0,277.85,0C191.57,0,120.66,67.05,114.48,151.78a126,126,0,0,0,12.17,251.47H245.08l-23.87,18.23,15.31,20L280,408.27a21.75,21.75,0,0,0,0-35.33l-43.45-33.2-15.31,20L245.08,378H126.65A100.8,100.8,0,0,1,114.59,177.1a162.71,162.71,0,0,0,8.23,39.69l23.85-8.15a138.29,138.29,0,0,1-7.42-44.86c0-76.43,62.18-138.6,138.6-138.6a138.38,138.38,0,0,1,129.74,90.23,112.9,112.9,0,0,0-56.26,28.78l17.28,18.36a87.87,87.87,0,0,1,52-23.57l6.19-.29c.75-.05,1.5-.11,2.26-.11a88.3,88.3,0,0,1,88.2,88.2,86.2,86.2,0,0,1-.91,11.9L514.65,251l12.23,1.88A63,63,0,0,1,517.22,378h-50.4v25.25h50.4a88.17,88.17,0,0,0,25.13-172.69Z" fill="#fff"/><path d="M416.45,315h-93l-12.6-25.2H189.65a25.24,25.24,0,0,0-25.2,25.2v37.8h25.2V315H295.26l12.6,25.2H416.45V478.8H189.65V428.4h-25.2v50.4a25.24,25.24,0,0,0,25.2,25.2h226.8a25.24,25.24,0,0,0,25.2-25.2V340.25A25.23,25.23,0,0,0,416.45,315Z" fill="#fff"/></g></g></svg>