<svg xmlns="http://www.w3.org/2000/svg" viewBox="0 0 140.81 116.44"><g id="Layer_2" data-name="Layer 2"><g id="Ñëîé_1" data-name="Ñëîé 1"><path d="M53.41,69.35a2,2,0,0,0,0,2.82h0a2,2,0,0,0,2.83,0h0a2,2,0,0,0,0-2.83h0A2.06,2.06,0,0,0,53.41,69.35Z" fill="#fff"/><path d="M122.24,41.68V40.14a26.65,26.65,0,0,0-38.7-23.79A36.3,36.3,0,0,0,17.4,42a24.64,24.64,0,0,0,7.24,48.19h7.69a2,2,0,0,0,0-4H24.64A20.64,20.64,0,0,1,18.24,46a36.63,36.63,0,0,0,2.17,5.87A2,2,0,0,0,22.22,53a2.1,2.1,0,0,0,.85-.19,2,2,0,0,0,1-2.65h0A32.3,32.3,0,1,1,84.29,27.35a2,2,0,0,0,3.85-1.1h0a36.58,36.58,0,0,0-2.57-6.48,22.67,22.67,0,0,1,30.09,30.86,2,2,0,0,0,.84,2.7,2.32,2.32,0,0,0,.93.23,2,2,0,0,0,1.77-1.07,26.79,26.79,0,0,0,2.46-6.86,20.64,20.64,0,0,1-5.52,40.53H94.53a2,2,0,0,0-2,2,6.74,6.74,0,0,1-6.74,6.74H52.48a6.74,6.74,0,0,1,0-13.48H85.79a10.75,10.75,0,0,0,0-21.49H52.48a10.74,10.74,0,0,0-6.24,19.55,10.7,10.7,0,0,0-2.55,14.93A10.83,10.83,0,0,0,46.24,97a10.73,10.73,0,0,0,6.22,19.48H85.77A10.73,10.73,0,0,0,92,97a10.8,10.8,0,0,0,4.33-6.76h19.81a24.64,24.64,0,0,0,6.1-48.52ZM45.74,70.74A6.74,6.74,0,0,1,52.48,64H85.79a6.75,6.75,0,0,1,0,13.49H52.48A6.75,6.75,0,0,1,45.74,70.74Zm46.79,35a6.74,6.74,0,0,1-6.74,6.74H52.48a6.74,6.74,0,0,1,0-13.48H85.79a6.73,6.73,0,0,1,6.74,6.7Z" fill="#fff"/><path d="M53.41,86.81a2,2,0,1,0,2.83,0A2.06,2.06,0,0,0,53.41,86.81Z" fill="#fff"/><path d="M54.83,107.7a2,2,0,0,0,1.41-.58,2,2,0,0,0,.58-1.42,2,2,0,0,0-.58-1.41,2.06,2.06,0,0,0-2.83,0,2,2,0,0,0,1.42,3.41Z" fill="#fff"/></g></g></svg>