<svg xmlns="http://www.w3.org/2000/svg" viewBox="0 0 140.7 106.74"><g id="Layer_2" data-name="Layer 2"><g id="Ñëîé_1" data-name="Ñëîé 1"><path d="M24.55,90.18H41a2,2,0,1,0,0-4H24.55a20.64,20.64,0,0,1-6.4-40.26,36.17,36.17,0,0,0,2.17,5.86,2,2,0,0,0,3.81-.86,1.9,1.9,0,0,0-.2-.85A32.3,32.3,0,1,1,84.2,27.38a2,2,0,0,0,3.88-1,.57.57,0,0,0,0-.14,35.42,35.42,0,0,0-2.56-6.47,22.67,22.67,0,0,1,30.07,30.81,2,2,0,0,0,.84,2.7,2,2,0,0,0,.93.23,2,2,0,0,0,1.77-1.07,26.2,26.2,0,0,0,2.45-6.85A20.63,20.63,0,0,1,116,86.18H77.78a2,2,0,0,0-2,2v14.6H61.36V69.37a2,2,0,0,0-2-2H51.62L68.55,49.75l17,17.62H77.81a2,2,0,0,0,0,4H90.25a2,2,0,0,0,2-2A1.92,1.92,0,0,0,91.7,68L70,45.48a2,2,0,0,0-2.88,0L45.51,68A2,2,0,0,0,47,71.37H57.39v33.37a2,2,0,0,0,2,2H77.81a2,2,0,0,0,2-2V90.18H116a24.63,24.63,0,0,0,6.06-48.51V40.13A26.65,26.65,0,0,0,83.4,16.35a36.3,36.3,0,0,0-66.14,25.7,24.63,24.63,0,0,0,7.29,48.13Z" fill="#fff"/></g></g></svg>