<svg xmlns="http://www.w3.org/2000/svg" viewBox="0 0 52.32 45.23"><g id="Layer_2" data-name="Layer 2"><g id="Layer_1-2" data-name="Layer 1"><path d="M42.54,33.34H38.79a1,1,0,0,1,0-2h3.75A7.78,7.78,0,0,0,44.33,16a1,1,0,0,1-.74-.71,5.86,5.86,0,0,0-7.26-4l-.26.08a1,1,0,0,1-.83-.08,1,1,0,0,1-.48-.68,10.54,10.54,0,0,0-20.88,2,1,1,0,0,1-.29.88,1,1,0,0,1-.88.27,9.66,9.66,0,0,0-1.52-.15,8.86,8.86,0,0,0-.6,17.71q.3,0,.6,0h2.68a1,1,0,0,1,0,2H11.19a10.86,10.86,0,0,1-.66-21.71h1.38A12.54,12.54,0,0,1,36.48,9.12,7.56,7.56,0,0,1,38,9a7.86,7.86,0,0,1,7.36,5.16,9.78,9.78,0,0,1-2.8,19.15Z" fill="#fff"/><path d="M15.6,18.37a1.13,1.13,0,0,1-.32-.05c-3-1-3.38-5.27-3.39-5.45a1,1,0,0,1,2-.17c.07.87.59,3.24,2,3.72a1,1,0,0,1-.32,1.95Z" fill="#fff"/><path d="M33.43,14.89a1,1,0,0,1-1-.89c-.35-3.12,2.79-4.46,2.93-4.51a1,1,0,0,1,.77,1.84c-.09,0-1.89.84-1.71,2.45a1,1,0,0,1-.88,1.11h-.11Z" fill="#fff"/><path d="M26.33,27.78c-4.72,0-8.28-1.81-8.28-4.22s3.56-4.22,8.28-4.22,8.28,1.82,8.28,4.22S31.05,27.78,26.33,27.78Zm0-6.44c-3.78,0-6.28,1.34-6.28,2.22s2.5,2.22,6.28,2.22,6.28-1.34,6.28-2.22S30.1,21.34,26.33,21.34Z" fill="#fff"/><path d="M26.33,36.51c-4.72,0-8.28-1.82-8.28-4.23a1,1,0,0,1,2,0c0,.89,2.5,2.23,6.28,2.23s6.28-1.34,6.28-2.23a1,1,0,0,1,2,0C34.66,34.69,31.05,36.51,26.33,36.51Z" fill="#fff"/><path d="M26.33,45.23c-4.72,0-8.28-1.81-8.28-4.22V23.56a1,1,0,0,1,2,0c0,.88,2.5,2.22,6.28,2.22s6.28-1.34,6.28-2.22a1,1,0,0,1,2,0V41C34.66,43.42,31.05,45.23,26.33,45.23ZM20.05,26.37V41c0,.88,2.5,2.22,6.28,2.22s6.33-1.32,6.33-2.22V26.37a14.69,14.69,0,0,1-12.56,0Z" fill="#fff"/></g></g></svg>