<svg xmlns="http://www.w3.org/2000/svg" viewBox="0 0 604.4 478.8"><g id="Layer_2" data-name="Layer 2"><g id="Layer_1-2" data-name="Layer 1"><g id="icons"><path d="M541.33,230.46c0-1.25.07-2.49.07-3.71A113.54,113.54,0,0,0,432.53,113.43,163.59,163.59,0,0,0,276.8,0C190.52,0,119.61,67,113.43,151.78A126,126,0,0,0,125.6,403.15H176V378H125.6a100.8,100.8,0,0,1-12.06-200.88,163.18,163.18,0,0,0,8.23,39.69l23.85-8.15a138.29,138.29,0,0,1-7.42-44.86c0-76.43,62.18-138.6,138.6-138.6a138.38,138.38,0,0,1,129.74,90.23,112.9,112.9,0,0,0-56.26,28.78l17.28,18.36a87.87,87.87,0,0,1,52-23.57l6.19-.29c.75-.05,1.5-.11,2.26-.11a88.3,88.3,0,0,1,88.2,88.2,86.2,86.2,0,0,1-.91,11.9l-1.7,12.2,12.23,1.88A63,63,0,0,1,516.2,378H428v25.2h88.2a88.17,88.17,0,0,0,25.13-172.69Z" fill="#fff"/><path d="M377.6,329.72V302.35a75.6,75.6,0,0,0-151.2,0v27.37a37.85,37.85,0,0,0-25.2,35.63V441A37.86,37.86,0,0,0,239,478.8H365A37.85,37.85,0,0,0,402.8,441V365.4A37.83,37.83,0,0,0,377.6,329.72Zm-126-27.37a50.4,50.4,0,1,1,100.8,0v25.2H251.6ZM377.6,441A12.6,12.6,0,0,1,365,453.6H239A12.62,12.62,0,0,1,226.4,441V365.4A12.62,12.62,0,0,1,239,352.8H365a12.6,12.6,0,0,1,12.6,12.6Z" fill="#fff"/><rect x="289.4" y="390.55" width="25.2" height="25.2" fill="#fff"/></g></g></g></svg>