<svg xmlns="http://www.w3.org/2000/svg" viewBox="0 0 171 251"><path fill="#fff" d="M54.7 129l-5.3 32.3c-.4 2.7 1.4 5.3 4.1 5.7 1.1.2 2.2 0 3.2-.5l20-10.8c2.4-1.3 3.4-4.3 2-6.8-1.3-2.4-4.3-3.4-6.8-2l-11.1 6 4.1-24.9c.3-1.6-.3-3.3-1.5-4.4l-18.2-17.5 24.9-3.8c1.6-.2 3-1.3 3.7-2.8l11-22.7 11.3 22.5c.7 1.5 2.2 2.5 3.8 2.7l25 3.4-17.9 17.7c-1.2 1.2-1.7 2.8-1.4 4.4l4.4 24.8-10.5-5.4c-2.4-1.3-5.5-.4-6.8 2.1-1.3 2.4-.4 5.5 2.1 6.8h.1l19.5 10.1c2.5 1.3 5.5.3 6.7-2.1.5-1 .7-2.1.5-3.2l-5.8-32.2 23.2-23c2-1.9 2-5.1 0-7.1-.8-.8-1.8-1.3-2.9-1.4L104 92.6 89.3 63.4c-.9-1.7-2.6-2.7-4.5-2.8-1.9 0-3.6 1.1-4.5 2.8L66.1 92.9l-32.3 4.9c-2.7.4-4.6 3-4.2 5.7.2 1.1.7 2.1 1.5 2.9L54.7 129z"/><path fill="#fff" d="M166 0H6.1c-2.7 0-5 2.2-5 5L0 169.3c0 1.4.6 2.7 1.6 3.7l81.1 76.6c1.9 1.8 5 1.8 6.9 0l80-76.6c1-.9 1.5-2.2 1.5-3.6V5c-.1-2.8-2.3-5-5.1-5zm-5 167.2l-75 71.9-76-71.9L11.1 10h150v157.2z"/></svg>