<svg xmlns="http://www.w3.org/2000/svg" viewBox="0 0 245.4 236.5"><path fill="#fff" d="M245.3 48c-.5-2-2-3.5-4-3.8l-19.2-3.6 1.7-20.3c.2-2.8-1.8-5.2-4.6-5.5-1.2-.1-2.5.2-3.5 1l-18.9 14.1C148.1-13.5 73.4-9.2 29.9 39.6s-39.1 123.5 9.7 166.9 123.5 39.1 166.9-9.7c26.5-29.8 36.2-71 25.8-109.5-.7-2.7-3.5-4.2-6.1-3.5-2.7.7-4.2 3.5-3.5 6.1 15.7 57.8-18.5 117.4-76.3 133.1S29 204.6 13.3 146.8 31.8 29.4 89.6 13.7c34.7-9.4 71.8-1 99 22.4l-6.1 4.6c-1.1.9-1.9 2.1-2 3.6L179 60.1c-32.1-33.5-85.4-34.6-118.9-2.5S25.4 143 57.6 176.5s85.4 34.6 118.9 2.5c21.3-20.4 30.3-50.4 23.8-79.2-.6-2.7-3.3-4.4-6-3.7-2.7.6-4.3 3.3-3.7 5.9 9.1 40.1-16.1 80-56.2 89s-80-16.1-89-56.2 16.1-80 56.2-89c26.9-6.1 54.9 3.2 72.9 24.1L152.7 86c-17.9-19.2-48-20.2-67.2-2.3s-20.2 48-2.3 67.2 48 20.2 67.2 2.3c9.6-9 15.1-21.6 15.1-34.7 0-2.8-2.2-5-5-5s-5 2.2-5 5c0 20.7-16.8 37.6-37.5 37.6s-37.6-16.8-37.6-37.5S97.2 81 117.9 81c10 0 19.6 4 26.7 11.1l-20.5 15.2c-6.2-3.4-14.1-1.2-17.5 5-3.4 6.2-1.2 14.1 5 17.5 6.2 3.4 14.1 1.2 17.5-5 1.6-2.9 2-6.4 1.2-9.7l54-40 22.4 3.8c1.4.2 2.8-.1 3.9-.9l32.8-24.7c1.6-1.3 2.4-3.3 1.9-5.3zm-39.1 20.5l-17.6-3 1.8-18.1 22.4-16.7-1.2 13.6c-.2 2.6 1.6 4.9 4.1 5.4l12.4 2.3-21.9 16.5z"/></svg>