<svg xmlns="http://www.w3.org/2000/svg" viewBox="0 0 226 221.9"><path fill="#fff" d="M194.4 34.6C173.7 13 145.1.5 115.2 0H113C50.6 0 0 50.6 0 113.1c0 50.5 33.6 94.9 82.2 108.7 2.7.8 5.4-.8 6.2-3.5.8-2.7-.8-5.4-3.5-6.2-54.7-15.5-86.5-72.5-71-127.2C26.5 40.6 66.9 10 113 10h2c56.9 1.1 102.1 48.1 101 105-.4 22.2-8 43.7-21.7 61.2-13.4 17.1-31.8 29.6-52.7 35.7-2.7.7-4.3 3.4-3.6 6.1.7 2.7 3.4 4.3 6.1 3.6.1 0 .2-.1.3-.1 22.9-6.7 43.1-20.4 57.8-39.2 34.5-44.3 31.2-107.2-7.8-147.7z"/><path fill="#fff" d="M122.1 90.7c-12.3-5-26.4.9-31.4 13.2s.9 26.4 13.2 31.4c12.3 5 26.4-.9 31.4-13.2 5-12.4-.9-26.4-13.2-31.4zm3.9 27.6c-2.9 7.2-11.1 10.7-18.3 7.7-7.2-2.9-10.7-11.1-7.7-18.3 2.9-7.2 11.1-10.7 18.3-7.7 3.5 1.4 6.2 4.1 7.7 7.6 1.4 3.4 1.4 7.2 0 10.7z"/><path fill="#fff" d="M146.7 165.4c4.3 1 6.9-.8 8-1.9l9-9c1.2-1.2 3-3.9 1.8-8.3-.4-1.5-1.4-4.5-5.4-13.1l.4-1c12.2-4.9 14.2-6.3 15.4-7.4l2.3-2.5v-15.6c0-1.7-.6-5-4.6-7.2-1.4-.8-4.2-2.2-13.1-5.5l-.4-1c3.9-8.9 4.8-11.9 5.2-13.3 1.2-4.4-.6-7.1-1.8-8.3l-8.9-9c-1.2-1.2-3.9-3.1-8.3-1.9-1.5.4-4.4 1.4-13.2 5.4l-1-.4c-3.6-9-5-11.8-5.7-13.1l-.1-.2c-2.3-3.7-5.4-4.4-7-4.4h-12.8l-3.4.3-2.1 2c-1.1 1.1-2.6 3.2-7.1 15.4l-1.1.4C83.9 62 80.9 61 79.4 60.6c-4.4-1.1-7 .7-8.2 1.9l-9 8.9c-1.2 1.2-3 3.9-1.8 8.3.4 1.5 1.4 4.4 5.4 13.1l-.4 1.1c-12.1 4.9-14.2 6.3-15.3 7.4l-2.3 2.3v15.7c0 1.8.5 5 4.5 7.3 1.3.8 4.1 2.2 13.2 5.5l.4.9c-3.8 9-4.8 12-5.1 13.3-1.2 4.4.6 7.1 1.8 8.3l9 9c1.2 1.2 3.8 3 8.3 1.8 1.5-.4 4.4-1.4 13.2-5.4l1 .4c3.6 9.1 5 11.8 5.7 13.1 2.3 3.9 5.4 4.5 7 4.6h13.1l3.2-.4 1.9-1.9c1.2-1.2 2.6-3.3 7.2-15.4l1-.4c8.9 3.9 11.9 4.8 13.4 5.2l.1.2zm-13.4-16.1l-9 3.7-.8 2c-1.6 4.5-3.4 8.9-5.4 13.2H108c-.7-1.2-2.2-4.5-5.6-13.3l-.8-2-9-3.7-2 .9c-4.3 2.1-8.6 3.9-13.1 5.6l-7.2-7.2c.4-1.4 1.7-4.8 5.3-13.4l.8-1.9-3.6-8.9-2.1-.8c-4.5-1.5-8.9-3.3-13.2-5.3v-10.1c1.4-.7 4.9-2.4 13.3-5.7l2-.8 3.7-9-.9-2C71.9 82.5 70.5 79 70 77.5l7.1-7.1c1.5.4 5 1.7 13.4 5.4l1.9.8 9-3.7.8-2c3.1-8.3 4.6-11.8 5.3-13.2h10.1c.8 1.5 2.4 5 5.6 13.3l.8 1.9 8.9 3.8 2-1c8.2-3.9 11.7-5.2 13-5.6l7.2 7.2c-.4 1.4-1.6 4.8-5.4 13.4l-.9 2 3.8 9 2 .7c4.5 1.5 8.9 3.3 13.2 5.3v10.1c-1.5.8-5 2.4-13.3 5.7l-2 .8-3.8 9 .9 2c2.1 4.3 3.9 8.6 5.6 13.1l-7.2 7.1c-1.5-.4-5-1.7-13.3-5.4l-1.4-.8z"/></svg>